<?xml version="1.0" encoding="UTF-8" standalone="no"?>
<svg width="11px" height="7px" viewBox="0 0 11 7" version="1.1" xmlns="http://www.w3.org/2000/svg" xmlns:xlink="http://www.w3.org/1999/xlink" xmlns:sketch="http://www.bohemiancoding.com/sketch/ns">
    <title>Slice 1</title>
    <description>Created with Sketch (http://www.bohemiancoding.com/sketch)</description>
    <defs></defs>
    <g id="Page-1" stroke="none" stroke-width="1"  fill-rule="evenodd" sketch:type="MSPage">
        <path d="M10.7879464,1.42857143 C10.7879464,1.66517975 10.705358,1.8660706 10.5401786,2.03125 L6.18080357,6.390625 C6.01115987,6.56026871 5.8080369,6.64508929 5.57142857,6.64508929 C5.33035594,6.64508929 5.12946509,6.56026871 4.96875,6.390625 L0.609375,2.03125 C0.439731295,1.87053491 0.354910714,1.66964406 0.354910714,1.42857143 C0.354910714,1.1919631 0.439731295,0.988840134 0.609375,0.819196429 L1.10491071,0.316964286 C1.27901873,0.151784888 1.4821417,0.0691964286 1.71428571,0.0691964286 C1.95089404,0.0691964286 2.15178489,0.151784888 2.31696429,0.316964286 L5.57142857,3.57142857 L8.82589286,0.316964286 C8.99107225,0.151784888 9.1919631,0.0691964286 9.42857143,0.0691964286 C9.66071545,0.0691964286 9.86383842,0.151784888 10.0379464,0.316964286 L10.5401786,0.819196429 C10.705358,0.993304442 10.7879464,1.19642741 10.7879464,1.42857143 L10.7879464,1.42857143 Z" id="chevron_down" sketch:type="MSShapeGroup"></path>
    </g>
</svg>
