<?xml version="1.0" encoding="UTF-8" standalone="no"?>
<svg width="18px" height="18px" viewBox="0 0 18 18" version="1.1" xmlns="http://www.w3.org/2000/svg" xmlns:xlink="http://www.w3.org/1999/xlink" xmlns:sketch="http://www.bohemiancoding.com/sketch/ns">
    <title>Slice 1</title>
    <description>Created with Sketch (http://www.bohemiancoding.com/sketch)</description>
    <defs></defs>
    <g id="Page-1" stroke="none" stroke-width="1" fill-rule="evenodd" sketch:type="MSPage">
        <path d="M18,3.75 L18,14.6785714 C18,15.1205379 17.8426355,15.4988824 17.5279018,15.8136161 C17.2131681,16.1283498 16.8348236,16.2857143 16.3928571,16.2857143 L1.60714286,16.2857143 C1.16517636,16.2857143 0.78683193,16.1283498 0.47209821,15.8136161 C0.1573645,15.4988824 0,15.1205379 0,14.6785714 L0,3.75 C0,3.3080335 0.1573645,2.92968907 0.47209821,2.61495536 C0.78683193,2.30022164 1.16517636,2.14285714 1.60714286,2.14285714 L16.3928571,2.14285714 C16.8348236,2.14285714 17.2131681,2.30022164 17.5279018,2.61495536 C17.8426355,2.92968907 18,3.3080335 18,3.75 L18,3.75 Z M16.7142857,14.6785714 L16.7142857,6.96428571 C16.4999989,7.20535835 16.2689745,7.42633828 16.0212054,7.62723214 C14.2265535,9.00670333 12.8002285,10.1383884 11.7421875,11.0223214 C11.4006679,11.3102693 11.1227689,11.5345974 10.9084821,11.6953125 C10.6941954,11.8560276 10.4045777,12.0184144 10.0396205,12.1824777 C9.6746634,12.346541 9.3314748,12.4285714 9.0100446,12.4285714 L9,12.4285714 L8.98995536,12.4285714 C8.66852518,12.4285714 8.32533665,12.346541 7.96037946,12.1824777 C7.59542228,12.0184144 7.30580464,11.8560276 7.09151786,11.6953125 C6.87723107,11.5345974 6.59933206,11.3102693 6.2578125,11.0223214 C5.1997715,10.1383884 3.77344647,9.00670333 1.97879464,7.62723214 C1.73102555,7.42633828 1.50000107,7.20535835 1.28571429,6.96428571 L1.28571429,14.6785714 C1.28571429,14.7656254 1.317522,14.8409595 1.38113839,14.9045759 C1.44475478,14.9681923 1.52008885,15 1.60714286,15 L16.3928571,15 C16.4799111,15 16.5552452,14.9681923 16.6188616,14.9045759 C16.682478,14.8409595 16.7142857,14.7656254 16.7142857,14.6785714 L16.7142857,14.6785714 Z M16.7142857,4.12165179 L16.7142857,4.01116071 L16.7142857,3.87555804 C16.7142857,3.84542396 16.7126116,3.80189761 16.7092634,3.74497768 C16.7059152,3.68805775 16.6958706,3.64620549 16.6791295,3.61941964 C16.6623883,3.59263379 16.6439733,3.56250017 16.6238839,3.52901786 C16.6037945,3.49553555 16.5736609,3.47042419 16.5334821,3.45368304 C16.4933034,3.43694188 16.4464288,3.42857143 16.3928571,3.42857143 L1.60714286,3.42857143 C1.52008885,3.42857143 1.44475478,3.46037915 1.38113839,3.52399554 C1.317522,3.58761193 1.28571429,3.66294599 1.28571429,3.75 C1.28571429,4.87500563 1.77789686,5.82588897 2.76227679,6.60267857 C4.05469396,7.6205408 5.39731446,8.68191412 6.79017857,9.78683036 C6.83035734,9.82031267 6.94754367,9.919084 7.14174107,10.0831473 C7.33593847,10.2472106 7.48995479,10.3727674 7.60379464,10.4598214 C7.7176345,10.5468754 7.86662854,10.6523431 8.05078125,10.7762277 C8.23493396,10.9001122 8.40401709,10.9921872 8.55803571,11.0524554 C8.71205434,11.1127235 8.85602612,11.1428571 8.98995536,11.1428571 L9,11.1428571 L9.0100446,11.1428571 C9.1439739,11.1428571 9.2879457,11.1127235 9.4419643,11.0524554 C9.5959829,10.9921872 9.765066,10.9001122 9.9492188,10.7762277 C10.1333715,10.6523431 10.2823655,10.5468754 10.3962054,10.4598214 C10.5100452,10.3727674 10.6640615,10.2472106 10.8582589,10.0831473 C11.0524563,9.919084 11.1696427,9.82031267 11.2098214,9.78683036 C12.6026855,8.68191412 13.945306,7.6205408 15.2377232,6.60267857 C15.5993322,6.3147307 15.9358243,5.92801582 16.2472098,5.44252232 C16.5585953,4.95702882 16.7142857,4.51674305 16.7142857,4.12165179 L16.7142857,4.12165179 Z" id="mail" fill="#000000" sketch:type="MSShapeGroup"></path>
    </g>
</svg>
