<?xml version="1.0" encoding="UTF-8" standalone="no"?>
<svg width="361px" height="91px" viewBox="0 0 361 91" version="1.1" xmlns="http://www.w3.org/2000/svg" xmlns:xlink="http://www.w3.org/1999/xlink">
    <!-- Generator: Sketch 3.7.2 (28276) - http://www.bohemiancoding.com/sketch -->
    <title>David Putney</title>
    <desc>Created with Sketch.</desc>
    <defs></defs>
    <g id="Page-1" stroke="none" stroke-width="1" fill-rule="evenodd">
        <path d="M321.304687,49.8734929 C318.469339,57.3996354 314.82438,61.9662962 310.442862,61.9662962 C306.998602,61.9662962 305.725724,58.3722862 305.725724,53.8797737 L305.725724,52.7566456 C314.560998,51.3340166 319.053511,44.1459967 319.053511,38.8298569 C319.053511,35.3855973 317.181631,32.6900899 313.43787,32.6900899 C306.557092,32.6900899 301.541417,41.0578478 299.962531,49.6867668 C299.961795,49.6867636 299.961062,49.6867621 299.960333,49.6867621 C296.665824,58.297411 294.194942,62.4904226 292.248186,62.4904226 C291.574309,62.4904226 290.750682,62.1160466 290.750682,59.9446656 C290.750682,53.8048985 295.617571,44.8947488 295.617571,37.9313544 C295.617571,34.3373444 293.895441,32.6152146 291.274809,32.6152146 C288.13005,32.6152146 285.135042,34.8614709 282.739035,38.4554809 L283.562662,33.4388419 L277.123394,33.4388419 C276.420756,37.8888826 275.489173,43.4836525 274.400258,49.7576528 C272.15773,55.509678 269.253219,62.4904226 267.239867,62.4904226 C266.266489,62.4904226 265.742363,60.8431681 265.742363,57.6984093 C265.742363,54.9280266 266.116739,51.0345158 266.865491,45.8681265 C267.763993,42.7982429 268.512745,39.8781098 269.186622,37.0328519 C270.534376,37.0328519 271.957005,37.0328519 272.256506,36.9579767 L272.930383,33.4388419 C272.256506,33.5137171 271.208253,33.5885923 270.01025,33.5885923 C271.283128,27.5985757 272.03188,21.9080599 272.406256,15.7682928 L267.090116,15.7682928 C265.367987,23.3306889 264.394609,28.3473278 263.421231,33.5137171 C261.848852,33.5137171 260.575973,33.4388419 260.051847,33.4388419 L259.52772,36.9579767 C259.827221,37.0328519 261.1001,37.0328519 262.82223,37.0328519 C261.806835,41.5359078 261.103801,45.9608733 260.697782,49.9547497 C257.454604,58.3844217 255.014903,62.4904226 253.088453,62.4904226 C252.414576,62.4904226 251.590948,62.1160466 251.590948,59.9446656 C251.590948,53.8048985 253.762329,45.1193744 256.382962,33.4388419 L250.018569,33.4388419 C249.120067,37.1826023 247.697438,42.7233677 246.574309,49.0877604 L246.125058,51.5586423 C244.552679,58.0727854 242.306423,62.4904226 241.108419,62.4904226 C240.434542,62.4904226 239.610915,62.1160466 239.610915,59.9446656 C239.610915,56.9496572 240.284792,53.4305225 241.108419,49.2375108 C242.9803,39.6534842 244.477804,33.4388419 244.477804,33.4388419 L238.113411,33.4388419 C238.113411,33.4388419 236.615907,39.3539834 234.744027,49.0877604 C234.07015,52.6817704 233.546023,56.2757804 233.546023,59.3456639 C233.546023,64.3623028 234.893777,67.9563128 238.862163,67.9563128 C241.782296,67.9563128 243.953677,65.4854309 245.600932,61.8165458 C246.050183,65.4854309 247.547687,67.9563128 250.842196,67.9563128 C255.313525,67.9563128 257.918452,63.349872 260.276473,57.5495028 C260.276592,63.913409 261.624372,67.9563128 264.918735,67.9563128 C267.572838,67.9563128 269.469846,66.3975912 271.362647,63.037282 C270.873205,65.6701401 270.684126,67.5819368 270.684126,67.5819368 L277.19827,67.5819368 L280.193278,52.0827687 C282.66416,41.5253644 285.958669,38.0062296 287.830549,38.0062296 C288.654176,38.0062296 289.028552,38.6801065 289.028552,39.5037338 C289.028552,44.8947488 284.161664,53.2058968 284.161664,61.2924193 C284.161664,65.859807 286.632546,67.9563128 289.253178,67.9563128 C293.839065,67.9563128 296.879404,63.1108081 299.497388,57.1013811 C299.930887,63.3317389 302.694957,68.3306889 308.645857,68.3306889 C313.942491,68.3306889 317.366499,64.2733336 320.269602,58.3270073 C320.257703,58.672302 320.251514,59.0120774 320.251514,59.3456639 C320.251514,64.3623028 321.599268,67.9563128 325.567654,67.9563128 C327.589285,67.9563128 329.311414,66.6834343 330.734043,64.6618037 C330.434542,66.5336839 330.060166,68.3306889 329.760666,70.0528186 C323.995275,75.0694576 319.502762,79.4870948 319.502762,84.4288586 C319.502762,88.3972446 321.898769,90.344 325.268153,90.344 C330.060166,90.344 332.905424,84.8032346 334.178303,77.2408386 L335.526057,69.3040666 C346.382962,60.2441664 360.684126,48.8631348 360.684126,30.0694576 C360.684126,15.9180433 350.725724,9.55365058 339.644193,9.55365058 C329.610915,9.55365058 321.973644,14.7949151 318.379634,22.0578103 L323.620899,24.2291913 C326.915408,16.7416705 333.055175,13.297411 339.644193,13.297411 C348.778968,13.297411 355.367987,19.1376772 355.367987,30.1443328 C355.367987,45.8681265 345.709085,56.2009052 336.424559,64.3623028 C338.59594,52.1576439 341.366323,36.9579767 342.264825,33.4388419 L336.125058,33.4388419 C334.627554,40.4022363 331.557671,62.4904226 327.81391,62.4904226 C327.140033,62.4904226 326.316406,62.1160466 326.316406,59.9446656 C326.316406,56.9496572 326.990283,53.4305225 327.81391,49.2375108 C329.68579,39.6534842 331.183295,33.4388419 331.183295,33.4388419 L324.818902,33.4388419 C324.818902,33.4388419 323.321398,39.3539834 321.449517,49.0877604 C321.400397,49.3497389 321.352071,49.6117174 321.304687,49.8734929 Z M131.716172,58.979649 C129.507328,64.0891061 126.97734,67.9563128 122.880466,67.9563128 C118.837205,67.9563128 117.489451,64.2125524 117.489451,59.0461631 C117.489451,58.1749287 117.525653,57.2642006 117.591935,56.3256227 C115.985482,58.1714 113.920185,59.2707887 111.199933,59.2707887 C110.151681,59.2707887 109.178303,59.0461631 108.354676,58.5220366 C106.183295,62.1909218 103.712413,65.3356805 101.316406,67.5819368 L97.2731448,67.5819368 C96.8291186,61.4395749 96.3850924,55.8823622 96.1579451,50.9102986 C91.6216238,62.7661883 87.9717746,67.9563128 84.5443594,67.9563128 C82.1483527,67.9563128 80.800599,65.7849318 80.800599,60.6185424 L80.800599,59.7949151 C79.0784692,64.3623028 76.4578369,68.3306889 72.1150749,68.3306889 C68.4461897,68.3306889 66.9486855,64.2874276 66.9486855,58.8215374 C66.9486855,48.2641331 72.7140765,32.6900899 79.8272213,32.6900899 C82.597604,32.6900899 84.1699834,34.3373444 84.6941098,37.7067288 L85.5177371,33.5137171 L90.8338769,33.5137171 C88.5876206,43.4721198 87.1649917,51.5586423 86.1167388,58.9712879 C85.9669884,59.7949151 85.9669884,60.3939168 85.9669884,60.9180433 C85.9669884,62.0411714 86.191614,62.5652978 86.56599,62.5652978 C87.3896173,62.5652978 90.534376,58.9712879 94.128386,49.6867621 L95.8505158,45.1942496 C95.7756406,43.7716206 95.7756406,42.3489917 95.7756406,41.0761131 C95.7756406,39.1877113 95.8086231,37.4312394 95.9183692,35.8066976 C95.9739777,34.9835398 96.049295,34.1942546 96.1500166,33.4388419 L101.466156,33.4388419 C101.541032,33.7383428 101.615907,34.187594 101.615907,34.7117205 C101.615907,36.7333511 100.118403,52.906396 100.867155,60.5436672 C102.289784,58.4471614 103.637537,56.12603 104.760666,53.8048985 C103.787288,51.2591414 103.263161,48.1143827 103.263161,44.8198735 C103.263161,36.8082263 106.183295,28.3473278 111.125058,28.3473278 C114.120067,28.3473278 116.291448,30.7433344 116.291448,34.9363461 C116.291448,41.6002396 113.44619,49.6118869 109.552679,56.500406 C110.151681,56.7999068 110.825557,57.0245324 111.649185,57.0245324 C114.879906,57.0245324 116.802682,54.2021251 118.3416,50.2074655 C119.406963,43.723253 121.195142,37.088382 122.056839,33.4388419 L128.421231,33.4388419 C125.800599,45.1193744 123.629218,53.8048985 123.629218,59.9446656 C123.629218,62.1160466 124.452845,62.4904226 125.126722,62.4904226 C127.073478,62.4904226 129.544359,58.297411 132.838869,49.6867621 C132.842724,49.6867621 132.846721,49.6868176 132.850859,49.6869281 C134.854918,41.0596878 139.304894,32.6900899 144.519401,32.6900899 C147.289784,32.6900899 148.862163,34.3373444 149.38629,37.7067288 L154.627554,8.65514809 L160.542696,8.65514809 C160.243195,15.0195408 157.547687,30.3689584 154.328053,42.7982429 C152.905424,50.8098902 152.306423,55.5270283 152.306423,57.9979101 C152.306423,59.5702895 152.531048,60.1692912 153.055175,60.1692912 C154.777304,60.1692912 157.023561,55.9014043 159.419567,49.6867621 C159.868819,49.6867621 161.516073,50.2857637 161.516073,50.735015 C156.948686,62.7150483 152.680799,67.9563128 149.236539,67.9563128 C146.840532,67.9563128 145.492779,65.7849318 145.492779,60.6185424 L145.492779,59.7949151 C143.770649,64.3623028 141.150017,68.3306889 136.88213,68.3306889 C133.249196,68.3306889 131.745297,64.2928649 131.716172,58.979649 Z M1.73237937,85.3273611 C5.70076539,85.3273611 9.81890183,84.3539834 13.7124126,81.8082263 C17.5310483,83.3057304 23.2215641,84.952985 32.206589,84.952985 C52.722396,84.952985 65.3763062,60.5436672 65.3763062,38.3806057 C65.3763062,12.1742829 49.6525125,0.344 31.832213,0.344 C16.0335441,0.344 0.16,11.2757804 0.16,32.3157138 C0.16,44.8947488 6.97364393,56.874782 21.1250582,58.7466622 C19.1034276,67.5070616 16.6325458,73.796579 13.2631614,77.0910882 C9.89377704,75.6684592 6.97364393,74.4704559 3.60425957,74.4704559 L1.73237937,85.3273611 Z M32.206589,81.2092246 C25.8421963,81.2092246 21.1999334,80.0860965 17.456173,78.7383428 C21.4245591,74.6202063 25.0185691,68.3306889 27.7140765,58.8964126 C40.2931115,57.6984093 47.5560067,47.9646323 47.5560067,38.3806057 C47.5560067,34.4122196 46.2831281,30.4438336 43.6624958,27.1493245 L38.1217304,32.0910882 C39.8438602,34.4122196 40.6674875,37.1826023 40.6674875,39.952985 C40.6674875,46.4671281 36.2498502,53.2058968 28.7623295,54.8531514 C29.7357072,50.735015 30.4844592,46.1676273 31.1583361,40.9263627 C32.8055907,27.2241997 34.6774709,19.1376772 36.7739767,13.2225358 L29.8105824,11.500406 C27.7889517,17.4904226 26.1416972,26.9246988 24.1949418,40.9263627 C23.4461897,46.0178769 22.6974376,50.735015 21.8738103,54.9280266 C11.690782,53.1310216 6.67414309,42.9479933 6.67414309,32.6152146 C6.67414309,15.8431681 18.1300499,4.0877604 31.9070882,4.0877604 C45.9087521,4.0877604 57.2897837,14.7949151 57.2897837,40.1776106 C57.2897837,59.9446656 48.5293844,81.2092246 32.206589,81.2092246 Z M80.2015973,38.0811048 C81.8488519,38.0811048 82.5227288,40.0278602 82.5227288,42.7982429 C82.5227288,49.7616373 78.2548419,61.9662962 74.8105824,61.9662962 C73.6874542,61.9662962 73.238203,60.3939168 73.238203,58.0727854 C73.238203,51.2591414 77.0568386,38.0811048 80.2015973,38.0811048 Z M111.050183,32.9147155 C111.050183,35.3855973 109.552679,42.7233677 106.333045,50.2857637 C106.108419,48.7882596 105.958669,47.2158802 105.958669,45.5686256 C105.958669,38.8298569 107.905424,31.6418369 110.226556,31.6418369 C110.750682,31.6418369 111.050183,31.9413378 111.050183,32.9147155 Z M126.474476,29.0960799 C129.768985,29.0960799 131.71574,25.9513211 131.71574,23.2558136 C131.71574,21.1593078 130.667488,19.3623028 128.196606,19.3623028 C124.902097,19.3623028 122.955341,22.5819368 122.955341,25.2774443 C122.955341,27.2990749 124.078469,29.0960799 126.474476,29.0960799 Z M144.893777,38.0811048 C146.541032,38.0811048 147.214908,40.0278602 147.214908,42.7982429 C147.214908,49.7616373 142.947022,61.9662962 139.502762,61.9662962 C138.454509,61.9662962 138.005258,60.3939168 138.005258,58.0727854 C138.005258,51.3340166 141.674143,38.0811048 144.893777,38.0811048 Z M211.607587,11.2757804 C199.178303,34.1127188 208.762329,81.358975 189.519401,81.358975 C185.326389,81.358975 181.657504,78.6634676 181.657504,73.796579 C181.657504,70.3523195 184.128386,66.6085591 188.021897,66.1593078 L188.021897,60.0195408 C180.459501,60.3190416 176.266489,66.3090582 176.266489,72.3739501 C176.266489,80.0112213 181.058502,85.0278602 189.744027,85.0278602 C203.44619,85.0278602 207.414576,70.6518203 209.810582,54.1792745 C224.860499,53.5802729 234.2199,39.8032346 234.2199,26.3256972 C234.2199,13.3722862 225.534376,0.71837604 205.018569,0.71837604 C183.080133,0.71837604 172.897105,16.2924193 172.897105,30.1443328 C172.897105,41.3007388 179.486123,51.3340166 191.765657,51.3340166 C193.412912,51.3340166 194.985291,51.109391 196.40792,50.5852646 L195.209917,44.1459967 C194.236539,44.3706223 193.188286,44.5203727 192.065158,44.5203727 C183.60426,44.5203727 179.036872,37.1077271 179.036872,28.6468286 C179.036872,17.4904226 186.973644,4.46213644 204.120067,4.46213644 C220.742363,4.46213644 227.406256,15.2441664 227.406256,26.250822 C227.406256,37.407228 220.592612,48.93801 210.409584,50.2857637 C212.206589,36.7333511 213.404592,22.4321864 218.421231,13.5969118 L211.607587,11.2757804 Z M312.838869,37.3323527 C313.587621,37.3323527 314.036872,38.0811048 314.036872,39.2042329 C314.036872,41.9746156 311.56599,47.141005 305.950349,49.9113877 C306.848852,43.6967454 309.768985,37.3323527 312.838869,37.3323527 Z M323.695774,84.3539834 C323.695774,81.2840998 325.717404,78.2890915 328.862163,75.219208 L327.514409,82.5569784 C327.065158,84.8781098 326.466156,86.375614 325.193278,86.375614 C324.444526,86.375614 323.695774,85.7766123 323.695774,84.3539834 Z" id="David-Putney"></path>
    </g>
</svg>
