<?xml version="1.0" encoding="UTF-8"?><!DOCTYPE svg PUBLIC "-//W3C//DTD SVG 1.1//EN" "http://www.w3.org/Graphics/SVG/1.1/DTD/svg11.dtd"><svg xmlns="http://www.w3.org/2000/svg" xmlns:xlink="http://www.w3.org/1999/xlink"><symbol id="arrow-down"><path d="M1.545 1.659l18.712 15.085L38.97 1.66" stroke-width="3" fill="none" fill-rule="evenodd" stroke-linecap="round"/></symbol><symbol id="arrow-right"><path d="M20.286 6v3.489c0 .172.056.296.17.373.112.07.217.043.312-.077l3.428-4.563a.53.53 0 00.09-.31c0-.112-.03-.21-.09-.296L20.768.104c-.095-.112-.2-.133-.313-.065-.113.069-.17.194-.17.374V4H1.004A1 1 0 000 5c0 .552.439 1 1.003 1h19.283z" fill-rule="evenodd"/></symbol><symbol id="arrow-up"><path d="M1.545 17.744L20.257 2.66 38.97 17.744" stroke-width="3" fill="none" fill-rule="evenodd" stroke-linecap="round"/></symbol><symbol id="chevron-down"><path d="M10.788 1.429a.82.82 0 01-.248.602l-4.36 4.36a.831.831 0 01-.609.254.796.796 0 01-.602-.254L.609 2.03a.796.796 0 01-.254-.602c0-.237.085-.44.254-.61l.496-.502a.858.858 0 01.61-.248.82.82 0 01.602.248l3.254 3.254L8.826.317a.82.82 0 01.603-.248c.232 0 .435.083.609.248l.502.502a.858.858 0 01.248.61z" fill-rule="evenodd"/></symbol><symbol id="chevron-up"><path d="M.958 5.038L5.317.678a.831.831 0 01.61-.254c.24 0 .441.085.602.255l4.36 4.359c.169.16.254.362.254.603 0 .236-.085.44-.255.609l-.495.502a.858.858 0 01-.61.248.82.82 0 01-.602-.248L5.926 3.498 2.672 6.752A.82.82 0 012.069 7a.858.858 0 01-.61-.248L.959 6.25a.858.858 0 01-.248-.61.82.82 0 01.248-.602z" fill-rule="evenodd"/></symbol><symbol id="clear"><path d="M7 5.586L5.584 4.169a1.003 1.003 0 00-1.412.003.996.996 0 00-.003 1.412L5.586 7 4.169 8.416a1.003 1.003 0 00.003 1.412.996.996 0 001.412.003L7 8.414l1.416 1.417a1.003 1.003 0 001.412-.003.996.996 0 00.003-1.412L8.414 7l1.417-1.416a1.003 1.003 0 00-.003-1.412.996.996 0 00-1.412-.003L7 5.586zM2.05 11.95a7 7 0 109.9-9.9 7 7 0 00-9.9 9.9z" fill-rule="evenodd"/></symbol><symbol id="close-box"><path d="M7.811 6.896l-.915.915A.623.623 0 016.438 8a.623.623 0 01-.458-.189L4 5.831l-1.98 1.98A.623.623 0 011.562 8a.623.623 0 01-.458-.189L.19 6.896A.623.623 0 010 6.438c0-.18.063-.332.189-.458L2.169 4 .188 2.02A.623.623 0 010 1.562c0-.18.063-.332.189-.458L1.104.19A.623.623 0 011.562 0c.18 0 .332.063.458.189L4 2.169 5.98.188A.623.623 0 016.438 0c.18 0 .332.063.458.189l.915.915A.623.623 0 018 1.562c0 .18-.063.332-.189.458L5.831 4l1.98 1.98A.623.623 0 018 6.438c0 .18-.063.332-.189.458z" fill="#000" fill-rule="evenodd"/></symbol><symbol id="facebook"><path d="M10.93 5.898h3.012L13.59 9h-2.66v9H6.934V9H4.942V5.898h1.992V4.03c0-1.325.336-2.328 1.008-3.009C8.614.341 9.719 0 11.258 0h2.66v3.102h-1.664c-.304 0-.548.024-.732.07-.184.048-.316.134-.398.258-.082.123-.135.249-.159.376a3.175 3.175 0 00-.035.541v1.551z" fill-rule="evenodd"/></symbol><symbol id="github" viewBox="0 0 11 10"><path d="M10.286 5.143c0 1.12-.327 2.128-.981 3.023a5.037 5.037 0 01-2.535 1.859c-.12.022-.209.006-.264-.047a.267.267 0 01-.084-.201V8.364c0-.433-.116-.75-.348-.951.254-.027.483-.067.686-.12.203-.054.413-.141.63-.262.216-.12.397-.269.542-.445.145-.176.263-.41.355-.703.091-.293.137-.629.137-1.008 0-.54-.176-1-.529-1.38.165-.406.147-.861-.053-1.366-.125-.04-.306-.015-.543.074-.237.09-.442.188-.616.295l-.254.16a4.753 4.753 0 00-1.286-.174c-.442 0-.87.058-1.286.174a5.942 5.942 0 00-.284-.18 4.015 4.015 0 00-.56-.258c-.254-.1-.446-.13-.575-.09-.197.504-.213.96-.047 1.366-.353.379-.53.839-.53 1.379 0 .38.046.714.138 1.004.091.29.209.525.351.704.143.178.323.328.54.448.216.12.426.208.629.261.203.054.432.094.686.12-.178.162-.288.392-.328.69a1.328 1.328 0 01-.301.101 1.895 1.895 0 01-.382.034.789.789 0 01-.438-.144 1.18 1.18 0 01-.372-.419 1.08 1.08 0 00-.325-.348.978.978 0 00-.331-.16l-.134-.02a.434.434 0 00-.194.03c-.036.02-.047.045-.034.076a.49.49 0 00.147.174l.047.034c.098.044.196.13.292.254.096.125.166.24.21.342l.067.154c.059.17.157.307.295.412.139.105.288.172.449.2.16.03.316.045.465.047.15.003.274-.005.372-.023l.154-.027a61.787 61.787 0 00.007.958c0 .08-.03.147-.088.2-.058.054-.147.07-.267.048A5.037 5.037 0 01.98 8.166 4.999 4.999 0 010 5.143C0 4.21.23 3.349.69 2.56A5.12 5.12 0 012.56.69 5.03 5.03 0 015.143 0c.933 0 1.793.23 2.581.69A5.12 5.12 0 019.596 2.56c.46.788.69 1.649.69 2.582z" fill-rule="evenodd"/></symbol><symbol id="inside_page_mask" viewBox="0 0 2300 121"><path d="M0 0s422.625 72.034 1147 72.034S2300 0 2300 0v121H0V0z" fill-rule="evenodd"/></symbol><symbol id="linkedin-in" viewBox="0 0 448 512"><path d="M100.28 448H7.4V148.9h92.88zM53.79 108.1C24.09 108.1 0 83.5 0 53.8a53.79 53.79 0 01107.58 0c0 29.7-24.1 54.3-53.79 54.3zM447.9 448h-92.68V302.4c0-34.7-.7-79.2-48.29-79.2-48.29 0-55.69 37.7-55.69 76.7V448h-92.78V148.9h89.08v40.8h1.3c12.4-23.5 42.69-48.3 87.88-48.3 94 0 111.28 61.9 111.28 142.3V448z"/></symbol><symbol id="mail"><path d="M18 3.75v10.929c0 .442-.157.82-.472 1.135a1.548 1.548 0 01-1.135.472H1.607c-.442 0-.82-.158-1.135-.472A1.548 1.548 0 010 14.679V3.75c0-.442.157-.82.472-1.135a1.548 1.548 0 011.135-.472h14.786c.442 0 .82.157 1.135.472.315.315.472.693.472 1.135zm-1.286 10.929V6.964a5.886 5.886 0 01-.693.663 140.7 140.7 0 00-4.279 3.395c-.341.288-.62.513-.834.673a4.64 4.64 0 01-.868.487c-.365.165-.709.247-1.03.247h-.02c-.321 0-.665-.082-1.03-.247a4.64 4.64 0 01-.868-.487 19.74 19.74 0 01-.834-.673 140.7 140.7 0 00-4.28-3.395 5.886 5.886 0 01-.692-.663v7.715c0 .087.032.162.095.226a.309.309 0 00.226.095h14.786a.309.309 0 00.226-.095.309.309 0 00.095-.226zm0-10.557v-.246a2.4 2.4 0 00-.005-.131.275.275 0 00-.03-.126 5.877 5.877 0 01-.055-.09.184.184 0 00-.09-.075.364.364 0 00-.141-.025H1.607a.309.309 0 00-.226.095.309.309 0 00-.095.226c0 1.125.492 2.076 1.476 2.853C4.055 7.62 5.397 8.682 6.79 9.787l.352.296c.194.164.348.29.462.377.114.087.263.192.447.316s.353.216.507.276c.154.06.298.09.432.09h.02c.134 0 .278-.03.432-.09.154-.06.323-.152.507-.276.184-.124.333-.23.447-.316.114-.087.268-.213.462-.377l.352-.296c1.393-1.105 2.735-2.166 4.028-3.184.361-.288.698-.675 1.01-1.16.31-.486.466-.926.466-1.321z" fill-rule="evenodd"/></symbol><symbol id="nameplate" viewBox="0 0 361 91"><path d="M321.305 49.873c-2.836 7.527-6.48 12.093-10.862 12.093-3.444 0-4.717-3.594-4.717-8.086v-1.123c8.835-1.423 13.328-8.611 13.328-13.927 0-3.444-1.872-6.14-5.616-6.14-6.88 0-11.897 8.368-13.475 16.997h-.003c-3.294 8.61-5.765 12.803-7.712 12.803-.674 0-1.497-.374-1.497-2.545 0-6.14 4.867-15.05 4.867-22.014 0-3.594-1.723-5.316-4.343-5.316-3.145 0-6.14 2.246-8.536 5.84l.824-5.016h-6.44c-.702 4.45-1.634 10.045-2.723 16.319-2.242 5.752-5.147 12.732-7.16 12.732-.974 0-1.498-1.647-1.498-4.792 0-2.77.375-6.663 1.123-11.83.899-3.07 1.648-5.99 2.322-8.835 1.347 0 2.77 0 3.07-.075l.673-3.52c-.673.076-1.722.15-2.92.15 1.273-5.99 2.022-11.68 2.396-17.82h-5.316c-1.722 7.563-2.695 12.58-3.669 17.746-1.572 0-2.845-.075-3.37-.075l-.523 3.519c.3.075 1.572.075 3.294.075a110.171 110.171 0 00-2.124 12.922c-3.243 8.43-5.683 12.535-7.61 12.535-.673 0-1.497-.374-1.497-2.545 0-6.14 2.171-14.826 4.792-26.506h-6.364c-.899 3.744-2.322 9.284-3.445 15.649l-.449 2.47c-1.572 6.515-3.819 10.932-5.017 10.932-.673 0-1.497-.374-1.497-2.545 0-2.995.674-6.514 1.497-10.707 1.872-9.585 3.37-15.8 3.37-15.8h-6.365s-1.497 5.916-3.369 15.65c-.674 3.594-1.198 7.188-1.198 10.258 0 5.016 1.348 8.61 5.316 8.61 2.92 0 5.092-2.47 6.739-6.14.45 3.67 1.947 6.14 5.241 6.14 4.472 0 7.076-4.606 9.434-10.406 0 6.363 1.348 10.406 4.643 10.406 2.654 0 4.55-1.558 6.444-4.919-.49 2.633-.679 4.545-.679 4.545h6.514l2.995-15.5c2.471-10.557 5.766-14.076 7.638-14.076.823 0 1.198.674 1.198 1.498 0 5.39-4.867 13.702-4.867 21.788 0 4.568 2.47 6.664 5.091 6.664 4.586 0 7.626-4.845 10.244-10.855.434 6.23 3.198 11.23 9.149 11.23 5.296 0 8.72-4.058 11.624-10.004a29.6 29.6 0 00-.018 1.019c0 5.016 1.347 8.61 5.316 8.61 2.021 0 3.743-1.273 5.166-3.294-.3 1.872-.674 3.669-.973 5.39-5.766 5.017-10.258 9.435-10.258 14.377 0 3.968 2.396 5.915 5.765 5.915 4.792 0 7.637-5.54 8.91-13.103l1.348-7.937c10.857-9.06 25.158-20.44 25.158-39.235 0-14.151-9.958-20.515-21.04-20.515-10.033 0-17.67 5.24-21.264 12.504l5.24 2.171c3.295-7.487 9.435-10.932 16.024-10.932 9.135 0 15.724 5.84 15.724 16.847 0 15.724-9.659 26.057-18.943 34.218 2.17-12.204 4.941-27.404 5.84-30.923h-6.14c-1.497 6.963-4.567 29.051-8.311 29.051-.674 0-1.498-.374-1.498-2.545 0-2.995.674-6.514 1.498-10.707 1.872-9.585 3.37-15.8 3.37-15.8h-6.365s-1.498 5.916-3.37 15.65l-.144.785zM131.716 58.98c-2.209 5.11-4.739 8.976-8.836 8.976-4.043 0-5.39-3.743-5.39-8.91 0-.871.036-1.782.102-2.72-1.607 1.845-3.672 2.945-6.392 2.945-1.048 0-2.022-.225-2.845-.749-2.172 3.669-4.643 6.814-7.039 9.06h-4.043c-.444-6.142-.888-11.7-1.115-16.672-4.536 11.856-8.186 17.046-11.614 17.046-2.396 0-3.743-2.171-3.743-7.337v-.824c-1.723 4.567-4.343 8.536-8.686 8.536-3.669 0-5.166-4.044-5.166-9.51 0-10.557 5.765-26.13 12.878-26.13 2.77 0 4.343 1.646 4.867 5.016l.824-4.193h5.316c-2.246 9.958-3.669 18.045-4.717 25.457-.15.824-.15 1.423-.15 1.947 0 1.123.225 1.647.599 1.647.824 0 3.968-3.594 7.562-12.878l1.723-4.493c-.075-1.422-.075-2.845-.075-4.118 0-1.888.033-3.645.142-5.27.056-.822.131-1.612.232-2.367h5.316c.075.3.15.749.15 1.273 0 2.021-1.498 18.194-.749 25.832a54.387 54.387 0 003.894-6.74c-.974-2.545-1.498-5.69-1.498-8.984 0-8.012 2.92-16.473 7.862-16.473 2.995 0 5.166 2.396 5.166 6.59 0 6.663-2.845 14.675-6.738 21.563.599.3 1.273.525 2.096.525 3.23 0 5.154-2.823 6.693-6.818 1.065-6.484 2.853-13.119 3.715-16.768h6.364c-2.62 11.68-4.792 20.366-4.792 26.506 0 2.171.824 2.545 1.498 2.545 1.946 0 4.417-4.193 7.712-12.803a.45.45 0 01.012 0c2.004-8.627 6.454-16.997 11.668-16.997 2.77 0 4.343 1.647 4.867 5.017l5.242-29.052h5.915c-.3 6.365-2.995 21.714-6.215 34.143-1.423 8.012-2.022 12.729-2.022 15.2 0 1.572.225 2.171.75 2.171 1.721 0 3.968-4.268 6.364-10.482.449 0 2.096.599 2.096 1.048-4.567 11.98-8.835 17.221-12.28 17.221-2.395 0-3.743-2.171-3.743-7.337v-.824c-1.722 4.567-4.343 8.536-8.61 8.536-3.634 0-5.138-4.038-5.167-9.351zM1.732 85.327c3.969 0 8.087-.973 11.98-3.519 3.819 1.498 9.51 3.145 18.495 3.145 20.515 0 33.17-24.41 33.17-46.572C65.376 12.174 49.652.344 31.831.344 16.034.344.16 11.276.16 32.316c0 12.579 6.814 24.559 20.965 26.43-2.022 8.761-4.492 15.05-7.862 18.345-3.37-1.423-6.29-2.62-9.659-2.62L1.732 85.326zm30.475-4.118c-6.365 0-11.007-1.123-14.75-2.47 3.968-4.119 7.562-10.408 10.257-19.843 12.58-1.198 19.842-10.931 19.842-20.515 0-3.969-1.273-7.937-3.894-11.232l-5.54 4.942c1.722 2.321 2.545 5.092 2.545 7.862 0 6.514-4.417 13.253-11.905 14.9.974-4.118 1.722-8.685 2.396-13.927 1.648-13.702 3.52-21.788 5.616-27.703L29.811 11.5c-2.022 5.99-3.67 15.425-5.616 29.426-.749 5.092-1.498 9.809-2.321 14.002-10.183-1.797-15.2-11.98-15.2-22.313 0-16.772 11.456-28.527 25.233-28.527 14.002 0 25.383 10.707 25.383 36.09 0 19.767-8.76 41.031-25.083 41.031zm47.995-43.128c1.647 0 2.32 1.947 2.32 4.717 0 6.964-4.267 19.168-7.711 19.168-1.124 0-1.573-1.572-1.573-3.893 0-6.814 3.819-19.992 6.964-19.992zm30.848-5.166c0 2.47-1.497 9.808-4.717 17.37a31.688 31.688 0 01-.374-4.716c0-6.74 1.946-13.927 4.268-13.927.524 0 .823.3.823 1.273zm15.424-3.819c3.295 0 5.242-3.145 5.242-5.84 0-2.097-1.049-3.894-3.52-3.894-3.294 0-5.24 3.22-5.24 5.915 0 2.022 1.122 3.82 3.518 3.82zm18.42 8.985c1.647 0 2.32 1.947 2.32 4.717 0 6.964-4.267 19.168-7.711 19.168-1.048 0-1.498-1.572-1.498-3.893 0-6.739 3.67-19.992 6.889-19.992zm66.714-26.805c-12.43 22.837-2.846 70.083-22.089 70.083-4.193 0-7.861-2.696-7.861-7.562 0-3.445 2.47-7.188 6.364-7.638v-6.14c-7.562.3-11.756 6.29-11.756 12.355 0 7.637 4.793 12.654 13.478 12.654 13.702 0 17.67-14.376 20.067-30.849 15.05-.599 24.409-14.376 24.409-27.853 0-12.954-8.686-25.608-29.201-25.608-21.939 0-32.122 15.574-32.122 29.426 0 11.157 6.59 21.19 18.869 21.19 1.647 0 3.22-.225 4.642-.749l-1.198-6.439a13.92 13.92 0 01-3.145.374c-8.46 0-13.028-7.412-13.028-15.873 0-11.157 7.937-24.185 25.083-24.185 16.622 0 23.286 10.782 23.286 21.789 0 11.156-6.813 22.687-16.996 24.035 1.797-13.553 2.995-27.854 8.011-36.69l-6.813-2.32zm101.23 26.056c.75 0 1.199.75 1.199 1.872 0 2.77-2.471 7.937-8.087 10.707.899-6.214 3.819-12.579 6.889-12.579zm10.858 47.022c0-3.07 2.021-6.065 5.166-9.135l-1.348 7.338c-.449 2.321-1.048 3.819-2.32 3.819-.75 0-1.498-.6-1.498-2.022z" fill-rule="evenodd"/></symbol><symbol id="search-icon"><g fill-rule="evenodd"><path d="M7.25 13.5a6.25 6.25 0 100-12.5 6.25 6.25 0 000 12.5zm.125-2.938a3.187 3.187 0 100-6.375 3.187 3.187 0 000 6.375z"/><path d="M17.03 16.762a1.337 1.337 0 01-1.92.102L9.45 11.431c-.558-.516 1.264-2.587 1.82-2.073l5.658 5.433c.558.516.606 1.394.1 1.97z"/></g></symbol><symbol id="twitter"><path d="M18.196 7.087a11.182 11.182 0 01-.465 3.727 11.512 11.512 0 01-1.45 3.072c-.649.98-1.42 1.848-2.316 2.602-.896.754-1.976 1.356-3.24 1.805-1.264.45-2.616.674-4.055.674-2.269 0-4.345-.597-6.228-1.793.293.033.62.05.98.05 1.883 0 3.561-.569 5.034-1.706a3.994 3.994 0 01-2.36-.798 3.908 3.908 0 01-1.432-1.971c.277.04.532.061.766.061.36 0 .716-.045 1.067-.136a4.001 4.001 0 01-2.329-1.378 3.822 3.822 0 01-.922-2.54v-.05c.569.313 1.18.482 1.833.507A4.012 4.012 0 011.76 7.79a3.844 3.844 0 01-.49-1.904c0-.725.185-1.397.553-2.015a11.464 11.464 0 003.698 2.949 11.438 11.438 0 004.664 1.23 4.37 4.37 0 01-.1-.915c0-1.104.395-2.046 1.186-2.825.791-.779 1.748-1.168 2.87-1.168 1.171 0 2.159.42 2.963 1.26a8.028 8.028 0 002.573-.963c-.31.947-.904 1.68-1.782 2.2a8.18 8.18 0 002.335-.618 8.428 8.428 0 01-2.034 2.065z" fill-rule="evenodd"/></symbol><symbol id="up-arrow"><path d="M10.788 5.217a.85.85 0 01-.248.602l-.502.502a.831.831 0 01-.61.255.796.796 0 01-.602-.255L6.857 4.36v4.715c0 .232-.084.42-.251.566A.894.894 0 016 9.857h-.857a.894.894 0 01-.606-.217.714.714 0 01-.251-.566V4.359L2.317 6.321a.796.796 0 01-.603.255.796.796 0 01-.602-.255L.609 5.82a.824.824 0 01-.254-.602c0-.237.085-.44.254-.61L4.97.247A.793.793 0 015.57 0c.242 0 .445.083.61.248l4.36 4.36a.858.858 0 01.247.609z" fill-rule="evenodd"/></symbol></svg>