<?xml version="1.0" encoding="UTF-8" standalone="no"?>
<svg width="12px" height="7px" viewBox="0 0 12 7" version="1.1" xmlns="http://www.w3.org/2000/svg" xmlns:xlink="http://www.w3.org/1999/xlink" xmlns:sketch="http://www.bohemiancoding.com/sketch/ns">
    <title>Slice 1</title>
    <description>Created with Sketch (http://www.bohemiancoding.com/sketch)</description>
    <defs></defs>
    <g id="Page-1" stroke="none" stroke-width="1" fill-rule="evenodd" sketch:type="MSPage">
        <path d="M11.328125,1.96205357 L6.96875,6.32142857 C6.79910629,6.49107228 6.59598333,6.57589286 6.359375,6.57589286 C6.11830237,6.57589286 5.91741152,6.49107228 5.75669643,6.32142857 L1.39732143,1.96205357 C1.22767772,1.80133848 1.14285714,1.60044763 1.14285714,1.359375 C1.14285714,1.12276667 1.22767772,0.919643705 1.39732143,0.75 L1.89285714,0.247767857 C2.06696516,0.0825884598 2.27008813,-2.84217094e-14 2.50223214,-2.84217094e-14 C2.73884047,-2.84217094e-14 2.93973132,0.0825884598 3.10491071,0.247767857 L6.359375,3.50223214 L9.61383929,0.247767857 C9.77901868,0.0825884598 9.97990953,-2.84217094e-14 10.2165179,-2.84217094e-14 C10.4486619,-2.84217094e-14 10.6517848,0.0825884598 10.8258929,0.247767857 L11.328125,0.75 C11.4933044,0.924108013 11.5758929,1.12723098 11.5758929,1.359375 C11.5758929,1.59598333 11.4933044,1.79687417 11.328125,1.96205357 Z" id="chevron_down"  sketch:type="MSShapeGroup" transform="translate(6.142857, 3.500000) rotate(-180.000000) translate(-6.142857, -3.500000) "></path>
    </g>
</svg>
