<?xml version="1.0" encoding="UTF-8"?>
<svg width="18px" height="18px" viewBox="0 0 18 18" version="1.1" xmlns="http://www.w3.org/2000/svg" xmlns:xlink="http://www.w3.org/1999/xlink">
    <title>Artboard</title>
    <desc>Created with Sketch.</desc>
    <defs></defs>
    <g id="Page-1" stroke="none" stroke-width="1"  fill-rule="evenodd">
        <g id="Artboard" fill="#000000">
            <g id="search-icon" transform="translate(1.000000, 1.000000)">
                <path d="M6.25000002,12.5 C9.70177971,12.5 12.5,9.70177971 12.5,6.25000002 C12.5,2.79822032 9.70177971,0 6.25000002,0 C2.79822032,0 0,2.79822032 0,6.25000002 C0,9.70177971 2.79822032,12.5 6.25000002,12.5 L6.25000002,12.5 L6.25000002,12.5 L6.25000002,12.5 Z M6.37472768,9.56209152 C8.13506011,9.56209152 9.56209152,8.13506011 9.56209152,6.37472768 C9.56209152,4.61439525 8.13506011,3.18736384 6.37472768,3.18736384 C4.61439525,3.18736384 3.18736384,4.61439525 3.18736384,6.37472768 C3.18736384,8.13506011 4.61439525,9.56209152 6.37472768,9.56209152 L6.37472768,9.56209152 L6.37472768,9.56209152 L6.37472768,9.56209152 Z" id="Combined-Shape"></path>
                <path d="M16.0296053,15.7615769 C15.527341,16.3341276 14.6648427,16.3774623 14.1097146,15.8644241 L8.45142555,10.4309061 C7.89336353,9.91515637 9.71515747,7.84447843 10.2702855,8.35751657 L15.9285745,13.7910346 C16.4866366,14.3067843 16.5353713,15.1850345 16.0296053,15.7615769 Z" id="Rectangle-1"></path>
            </g>
        </g>
    </g>
</svg>
