<?xml version="1.0" encoding="UTF-8"?>
<svg width="19px" height="19px" viewBox="0 0 19 19" version="1.1" xmlns="http://www.w3.org/2000/svg" xmlns:xlink="http://www.w3.org/1999/xlink">
    <title>Line_Icons</title>
    <g id="Page-1" stroke="none" stroke-width="1" fill-rule="evenodd">
        <g id="magic-wand-2" transform="translate(-3.000000, -2.000000)" fill-rule="nonzero">
            <g id="Group" transform="translate(3.293289, 2.741078)">
                <rect id="Rectangle" transform="translate(6.009996, 11.874998) rotate(-45.000000) translate(-6.009996, -11.874998) " x="-1.48943163" y="10.8750078" width="14.9988562" height="1.99998082"></rect>
                <rect id="Rectangle" transform="translate(14.141996, 3.743624) rotate(-45.000000) translate(-14.141996, -3.743624) " x="12.1415156" y="2.74363344" width="4.00096163" height="1.99998082"></rect>
                <rect id="Rectangle" transform="translate(15.694106, 9.540365) rotate(-75.000671) translate(-15.694106, -9.540365) " x="14.694136" y="7.53992517" width="1.99994025" height="4.00088047"></rect>
                <rect id="Rectangle" transform="translate(11.452627, 13.781735) rotate(-104.992312) translate(-11.452627, -13.781735) " x="9.45204504" y="12.7816945" width="4.00116342" height="2.00008169"></rect>
                <rect id="Rectangle" transform="translate(8.346024, 2.190600) rotate(75.000671) translate(-8.346024, -2.190600) " x="6.34608385" y="1.19062988" width="3.9998805" height="1.99994025"></rect>
                <rect id="Rectangle" transform="translate(4.103596, 6.433545) rotate(14.999329) translate(-4.103596, -6.433545) " x="2.10315532" y="5.43407481" width="4.00088047" height="1.99894028"></rect>
            </g>
        </g>
    </g>
</svg>