<?xml version="1.0" encoding="UTF-8"?>
<svg width="19px" height="20px" viewBox="0 0 19 20" version="1.1" xmlns="http://www.w3.org/2000/svg" xmlns:xlink="http://www.w3.org/1999/xlink">
    <title>Line_Icons</title>
    <g id="Page-1" stroke="none" stroke-width="1" fill-rule="evenodd">
        <g id="location-map" transform="translate(-2.000000, -2.000000)" fill-rule="nonzero">
            <g id="Line_Icons" transform="translate(2.000000, 1.999860)">
                <path d="M18.555,15.8321401 C18.833,15.6471401 19,15.3341401 19,15.0001401 L19,1.00014007 C19,0.631140074 18.797,0.292140074 18.472,0.119140074 C18.147,-0.0558599258 17.752,-0.0368599258 17.446,0.168140074 L12.054,3.76314007 L7.625,0.219140074 C7.475,0.102140074 7.25,0.0161400742 7.035,0.0081400742 C6.829,-8.8817842e-16 6.6,0.0661400742 6.445,0.168140074 L0.445,4.16814007 C0.167,4.35414007 0,4.66714007 0,5.00014007 L0,19.0001401 C0,19.3691401 0.203,19.7081401 0.528,19.8821401 C0.676,19.9621401 0.838,20.0001401 1,20.0001401 C1.194,20.0001401 1.387,19.9441401 1.555,19.8321401 L6.947,16.2381401 L11.376,19.7811401 C11.556,19.9261401 11.777,20.0001401 12,20.0001401 C12.266,20.0001401 12.395,19.9271401 12.549,19.8241401 L18.555,15.8321401 Z M2,5.53514007 L6,2.86914007 L6,14.4651401 L2,17.1321401 L2,5.53514007 Z M11,16.9201401 L8,14.5201401 L8,3.08214007 L11,5.48114007 L11,16.9201401 Z M17,14.4651401 L13,17.1321401 L13,5.53514007 L17,2.86914007 L17,14.4651401 Z" id="Shape"></path>
            </g>
        </g>
    </g>
</svg>