<?xml version="1.0" encoding="UTF-8"?>
<svg width="116px" height="75px" viewBox="0 0 116 75" version="1.1" xmlns="http://www.w3.org/2000/svg" xmlns:xlink="http://www.w3.org/1999/xlink">
    <title>css</title>
    <g id="Page-1" stroke="none" stroke-width="1"  fill-rule="evenodd">
        <g id="css" transform="translate(0.094697, 0.130597)"  fill-rule="nonzero">
            <path d="M1.53838918,40.9273527 L9.63669498,49.0977949 L9.54852834,68.7278958 L9.54852834,68.7278958 L9.54852834,68.7278958 L9.54852834,68.7429242 C9.54852834,68.8942101 9.664748,69.0354771 9.67877451,69.1827554 C9.69781049,69.3851379 9.74389759,69.5975394 9.78297144,69.7929086 C9.80300931,69.883079 9.86111914,69.9642324 9.88516458,70.0503953 C9.95028767,70.2968611 10.0234259,70.5473345 10.1216115,70.77777 C10.1406474,70.8188477 10.1717061,70.852912 10.1887383,70.890984 C10.3109694,71.1604934 10.4482288,71.4209857 10.6105355,71.6664496 C10.6205545,71.681478 10.6325772,71.6894932 10.6425961,71.7055235 C10.8249408,71.9680196 11.0243176,72.2164892 11.2497436,72.4379077 C11.2928251,72.481991 11.3469273,72.5120478 11.3920125,72.5531254 C11.5923912,72.7394776 11.7947737,72.9198185 12.0222036,73.0711044 C12.2035463,73.1933354 12.4049269,73.2845077 12.6002962,73.3867009 C12.7044931,73.4387994 12.799673,73.5029205 12.9058737,73.5480058 C13.5350629,73.8175151 14.2243657,73.9677992 14.9527423,73.9668072 C14.9677707,73.9668072 14.9797934,73.9617878 14.9938199,73.9617878 L22.2665654,73.9668072 C25.1540227,73.9668072 27.4964525,71.6373947 27.4934442,68.7519412 C27.4934442,65.8574706 25.1500152,63.538087 22.2555446,63.538087 L20.1796211,63.538087 L20.1786192,47.2312671 C20.2006609,46.7964453 20.1826268,46.3536083 20.0964639,45.923796 C19.8550076,44.4159462 18.9833602,43.1225016 17.7460216,42.3360151 L12.5071201,37.0971136 L18.4082733,31.1869434 C19.0074056,30.6529341 19.493324,29.99469 19.7958959,29.2362566 C19.9020966,28.9867851 19.9702253,28.7262927 20.0353484,28.4637966 C20.0463693,28.4177095 20.0634015,28.3746281 20.0764261,28.328541 C20.1706041,27.8877078 20.2006609,27.3216379 20.180623,26.8707858 L20.1846306,10.2884452 L22.2605541,10.2884452 C25.1540227,10.2884452 27.4964525,8.0672471 27.4964525,5.1727766 C27.4984537,2.2873231 25.1570284,0 22.270573,0 L14.9868067,0.0340644 C14.9767878,0.0340644 14.964765,0.0450852 14.9577518,0.0450852 C14.230377,0.0440833 13.5400724,0.2003787 12.9108832,0.4668824 C12.7916579,0.5189809 12.6824515,0.5981305 12.5682356,0.6582441 C12.3848891,0.7514202 12.1965331,0.838585 12.0272131,0.950797 C11.7997832,1.1050886 11.5953969,1.2844276 11.3960201,1.4697779 C11.3519368,1.5118574 11.2968326,1.5449199 11.2537512,1.5880014 C11.0333346,1.8094198 10.8339578,2.05288 10.6546189,2.3103666 C10.6415942,2.3304045 10.6265658,2.3424272 10.6125393,2.3604613 C10.4542401,2.5979101 10.3229921,2.8553967 10.1997592,3.1178928 C10.1787194,3.16398 10.1476607,3.2050576 10.1306285,3.2511447 C10.0344467,3.4715613 9.97533501,3.7070063 9.9142195,3.9414494 C9.89017405,4.0416387 9.84609073,4.1348148 9.82505097,4.2340023 C9.78597712,4.4243621 9.69881238,4.622737 9.67877451,4.8211119 C9.6637461,4.9764054 9.54652455,5.1246857 9.54652455,5.2849887 L9.54652455,5.3020208 L9.54652455,5.3020208 L9.54652455,5.3020208 L9.6336893,25.0814039 L1.50632858,33.2608631 C0.458347901,34.3108475 -0.0255666977,35.6914569 0.00248632248,37.0640511 C-0.0405951014,38.4586869 0.476381985,39.8673493 1.53838918,40.9273527 Z" id="Path"></path>
            <path d="M113.462576,33.0424503 L105.36427,24.8720081 L105.451435,5.2429091 L105.451435,5.2429091 L105.451435,5.2429091 L105.451435,5.2298845 C105.451435,5.0785986 105.336217,4.9373316 105.323192,4.7900532 C105.302153,4.5856669 105.258069,4.3752693 105.218995,4.1799 C105.197956,4.0897296 105.140848,4.0075743 105.1158,3.9194077 C105.050677,3.6729419 104.977539,3.4254742 104.880355,3.1950387 C104.860318,3.153961 104.830261,3.1198966 104.813229,3.078819 C104.690998,2.8103115 104.553738,2.5488173 104.391431,2.3053572 C104.381412,2.2913306 104.36939,2.2813117 104.359371,2.2672852 C104.177026,2.0047891 103.977649,1.7573214 103.753225,1.5338991 C103.710144,1.4918196 103.656041,1.459759 103.610956,1.4176794 C103.410578,1.2313272 103.207193,1.0509864 102.980765,0.8986986 C102.799422,0.7754657 102.59704,0.6832914 102.402673,0.584104 C102.297474,0.5320055 102.204298,0.4648786 102.096093,0.4187915 C101.466904,0.151286 100.777601,0.0020038 100.049225,0.00299573901 C100.033194,0.00299573901 100.022173,0.0070133 100.009149,0.0070133 L92.7354015,0.00299573901 C89.8479442,0.00299573901 87.5055145,2.3334102 87.5075208,5.2178618 C87.5075208,8.1123323 89.8509499,10.431716 92.7464224,10.431716 L94.8203421,10.431716 L94.8233478,26.7385359 C94.8003042,27.1733577 94.8183383,27.6161946 94.905503,28.046007 C95.1469594,29.5538568 96.0176049,30.8462995 97.2559454,31.6337879 L102.494847,36.8726894 L96.5936937,42.7838615 C95.9935595,43.3168689 95.5076411,43.975113 95.2060711,44.7335464 C95.0998704,44.9830179 95.0307397,45.2435103 94.9666185,45.5070083 C94.9535939,45.5520935 94.9375636,45.5961768 94.9255409,45.6422639 C94.8313629,46.0810933 94.8003042,46.6481651 94.821344,47.1000191 L94.8173364,63.6813578 L92.7414129,63.6813578 C89.8479442,63.6813578 87.5055145,65.9025559 87.5055145,68.7950226 C87.5035133,71.6804761 89.8449386,73.9688011 92.7323959,73.9688011 L100.016162,73.9347367 C100.027183,73.9347367 100.037202,73.9237159 100.045217,73.9237159 C100.773594,73.9247177 101.463898,73.7694242 102.093088,73.5029205 C102.210309,73.4478164 102.321519,73.3716725 102.435735,73.3095551 C102.619082,73.2153771 102.807438,73.1292142 102.976758,73.0180041 C103.204187,72.8627106 103.40657,72.6833716 103.607951,72.4980213 C103.652034,72.4559418 103.707138,72.4228793 103.750219,72.3807997 C103.971638,72.1583794 104.171015,71.9149192 104.350354,71.6574326 C104.362376,71.6383966 104.376403,71.625372 104.391431,71.6073379 C104.549731,71.3678853 104.680979,71.1124025 104.80321,70.8499064 C104.824249,70.8038192 104.855308,70.7627416 104.871338,70.7166545 C104.96752,70.495236 105.027634,70.2607929 105.087747,70.0263498 C105.112795,69.9261605 105.155876,69.8329844 105.177918,69.732795 C105.216992,69.5434371 105.304156,69.3450622 105.323192,69.1466873 C105.339223,68.9913938 105.457446,68.8421116 105.457446,68.6828105 L105.457446,68.6657783 L105.457446,68.6657783 L105.457446,68.6657783 L105.367276,48.8853934 L113.49664,40.7089399 C114.544621,39.6579536 115.026532,38.2773442 115.000483,36.9017443 C115.038554,35.511116 114.523581,34.1044575 113.462576,33.0424503 Z" id="Path"></path>
        </g>
    </g>
</svg>