<?xml version="1.0" encoding="UTF-8"?>
<svg width="22px" height="24px" viewBox="0 0 22 24" version="1.1" xmlns="http://www.w3.org/2000/svg" xmlns:xlink="http://www.w3.org/1999/xlink">
    <title>Line_Icons</title>
    <g id="Page-1" stroke="none" stroke-width="1"  fill-rule="evenodd">
        <g id="pen-4" transform="translate(0.000000, -0.001000)"  fill-rule="nonzero">
            <g id="Line_Icons" transform="translate(0.706795, 0.880000)">
                <path d="M16.7072046,1.422 C16.3162046,1.032 15.6842046,1.032 15.2932046,1.422 L14.5712046,2.144 L12.4282046,4.4408921e-16 L5.2932046,7.136 L6.7072046,8.551 L12.4292046,2.829 L13.1582046,3.558 L2.4352046,14.28 C2.3602046,14.355 2.2852046,14.475 2.2412046,14.572 C2.2312046,14.594 0.0522046032,21.099 0.0522046032,21.099 C-0.0687953968,21.457 0.0242046032,21.855 0.293204603,22.121 C0.559204603,22.39 0.957204603,22.483 1.3152046,22.362 C1.3152046,22.362 7.8202046,20.182 7.8422046,20.173 C7.9392046,20.129 8.0592046,20.054 8.1342046,19.979 L20.9932046,7.121 C21.3822046,6.731 21.3822046,6.098 20.9932046,5.706 L16.7072046,1.422 Z M13.1442046,6.4 L16.0152046,9.273 L7.4302046,17.858 L4.5582046,14.985 L13.1442046,6.4 Z M2.5812046,19.833 L3.5802046,16.837 L5.5792046,18.835 L2.5812046,19.833 Z M17.4282046,7.858 L14.5572046,4.987 L16.0002046,3.543 L18.8722046,6.415 L17.4282046,7.858 Z" id="Shape"></path>
            </g>
        </g>
    </g>
</svg>