<?xml version="1.0" encoding="UTF-8"?>
<svg width="24px" height="24px" viewBox="0 0 24 24" version="1.1" xmlns="http://www.w3.org/2000/svg" xmlns:xlink="http://www.w3.org/1999/xlink">
    <title>Line_Icons</title>
    <g id="Page-1" stroke="none" stroke-width="1"  fill-rule="evenodd">
        <g id="grid-settings"  fill-rule="nonzero">
            <g id="Group">
                <path d="M24,7 L24,5 L22.898,5 C22.768,4.362 22.513,3.771 22.165,3.246 L22.949,2.462 L21.535,1.048 L20.751,1.832 C20.227,1.485 19.636,1.23 18.999,1.101 L18.999,0 L16.999,0 L16.999,1.102 C16.362,1.231 15.77,1.486 15.246,1.833 L14.463,1.05 L13.049,2.465 L13.832,3.248 C13.484,3.771 13.23,4.363 13.1,5 L11.998,5 L11.998,7 L13.1,7 C13.23,7.637 13.484,8.229 13.832,8.754 L13.049,9.538 L14.464,10.951 L15.247,10.167 C15.772,10.514 16.363,10.769 17,10.898 L17,12.001 L19,12.001 L19,10.898 C19.637,10.768 20.229,10.514 20.753,10.166 L21.537,10.949 L22.95,9.535 L22.166,8.752 C22.514,8.228 22.768,7.637 22.898,7 L24,7 Z M17.998,8 C16.893,8 15.998,7.104 15.998,6 C15.998,4.896 16.893,4 17.998,4 C19.102,4 19.998,4.896 19.998,6 C19.998,7.104 19.102,8 17.998,8 Z" id="Shape"></path>
                <path d="M19,20.277 L19,13 L11.723,13 C11.376,12.405 10.739,12 10,12 C9.261,12 8.624,12.405 8.277,13 L3,13 L3,7.723 C3.3,7.548 3.548,7.3 3.723,7 L9,7 L9,5 L3.723,5 C3.376,4.405 2.738,4 2,4 C0.896,4 0,4.896 0,6 C0,6.738 0.405,7.376 1,7.723 L1,20.277 C0.405,20.624 0,21.263 0,22 C0,23.104 0.896,24 2,24 C2.738,24 3.376,23.595 3.723,23 L16.278,23 C16.625,23.595 17.262,24 18.001,24 C19.105,24 20.001,23.104 20.001,22 C20,21.263 19.595,20.624 19,20.277 Z M9,21 L3.723,21 C3.548,20.7 3.3,20.453 3,20.277 L3,15 L8.277,15 C8.452,15.3 8.7,15.548 9,15.723 L9,21 Z M16.277,21 L11,21 L11,15.723 C11.3,15.548 11.548,15.3 11.723,15 L17.001,15 L17.001,20.277 C16.701,20.451 16.452,20.699 16.277,21 Z" id="Shape"></path>
            </g>
        </g>
    </g>
</svg>