<?xml version="1.0" encoding="UTF-8"?>
<svg width="96px" height="64px" viewBox="0 0 96 64" version="1.1" xmlns="http://www.w3.org/2000/svg" xmlns:xlink="http://www.w3.org/1999/xlink">
    <title>Group</title>
    <g id="Page-1" stroke="none" stroke-width="1"  fill-rule="evenodd">
        <g id="noun_develop_3194307" transform="translate(0.500000, 0.261037)"  fill-rule="nonzero">
            <g id="Group">
                <path d="M28,6.7389632 C26.3,5.1389632 23.5,5.1389632 21.9,6.9389632 L1.2,28.7389632 C-0.4,30.4389632 -0.4,33.0389632 1.2,34.6389632 L21.9,56.5389632 C22.7,57.4389632 23.9,57.9389632 25,57.9389632 C26.1,57.9389632 27.1,57.5389632 28,56.7389632 C29.7,55.1389632 29.8,52.3389632 28.2,50.6389632 L10.2,31.7389632 L28.1,12.8389632 C29.8,11.0389632 29.7,8.3389632 28,6.7389632 Z" id="Path"></path>
                <path d="M93.8,28.7389632 L73.1,6.8389632 C71.5,5.1389632 68.7,5.0389632 67,6.6389632 C65.3,8.2389632 65.2,11.0389632 66.8,12.7389632 L84.8,31.7389632 L66.9,50.6389632 C65.3,52.3389632 65.3,55.1389632 67.1,56.7389632 C67.9,57.5389632 69,57.9389632 70.1,57.9389632 C71.2,57.9389632 72.4,57.4389632 73.2,56.5389632 L93.8,34.7389632 C95.4,33.0389632 95.4,30.4389632 93.8,28.7389632 Z" id="Path"></path>
                <path d="M55.6,0.138963205 C53.3,-0.461036795 50.9,0.938963205 50.3,3.2389632 L36.3,58.0389632 C35.7,60.3389632 37.1,62.7389632 39.4,63.3389632 C39.8,63.4389632 40.1,63.4389632 40.5,63.4389632 C42.4,63.4389632 44.2,62.1389632 44.7,60.2389632 L58.7,5.4389632 C59.3,3.1389632 57.9,0.738963205 55.6,0.138963205 Z" id="Path"></path>
            </g>
        </g>
    </g>
</svg>