<?xml version="1.0" encoding="UTF-8"?>
<svg width="20px" height="20px" viewBox="0 0 20 20" version="1.1" xmlns="http://www.w3.org/2000/svg" xmlns:xlink="http://www.w3.org/1999/xlink">
    <title>Line_Icons</title>
    <g id="Page-1" stroke="none" stroke-width="1"  fill-rule="evenodd">
        <g id="organization-hierarchy-3" transform="translate(-2.000000, -2.000000)"  fill-rule="nonzero">
            <g id="Line_Icons" transform="translate(2.000000, 2.000000)">
                <path d="M18.998,13 L16.998,13 L16.998,12 C16.998,10.346 15.653,9 14,9 L11,9 L11,7 L13,7 C13.553,7 14,6.553 14,6 L14,1 C14,0.447 13.553,0 13,0 L7,0 C6.447,0 6,0.447 6,1 L6,6 C6,6.553 6.447,7 7,7 L9,7 L9,9 L6,9 C4.346,9 3,10.346 3,12 L3,13 L1,13 C0.447,13 0,13.447 0,14 L0,19 C0,19.553 0.447,20 1,20 L7,20 C7.553,20 8,19.553 8,19 L8,14 C8,13.447 7.553,13 7,13 L5,13 L5,12 C5,11.449 5.449,11 6,11 L14,11 C14.551,11 14.998,11.449 14.998,12 L14.998,13 L13,13 C12.447,13 12,13.447 12,14 L12,19 C12,19.553 12.447,20 13,20 L18.998,20 C19.551,20 19.998,19.553 19.998,19 L19.998,14 C19.998,13.447 19.551,13 18.998,13 Z M8,5 L8,2 L12,2 L12,5 L8,5 Z M6,18 L2,18 L2,15 L6,15 L6,18 Z M17.998,18 L14,18 L14,15 L17.998,15 L17.998,18 Z" id="Shape"></path>
            </g>
        </g>
    </g>
</svg>