<?xml version="1.0" encoding="UTF-8"?>
<svg width="20px" height="20px" viewBox="0 0 20 20" version="1.1" xmlns="http://www.w3.org/2000/svg" xmlns:xlink="http://www.w3.org/1999/xlink">
    <title>Line_Icons</title>
    <g id="Page-1" stroke="none" stroke-width="1" fill-rule="evenodd">
        <g id="rewards-crown-1" transform="translate(-2.000000, -1.999000)" fill-rule="nonzero">
            <g id="Group" transform="translate(1.999923, 2.000000)">
                <path d="M19.6250766,7.22 C19.3220766,6.976 18.9020766,6.932 18.5530766,7.106 L13.3810766,9.692 L10.8580766,5.486 C10.4970766,4.883 9.50407657,4.883 9.14307657,5.486 L6.62007657,9.692 L1.44707657,7.105 C1.09807657,6.931 0.678076575,6.975 0.375076575,7.219 C0.0700765745,7.465 -0.0639234255,7.863 0.0290765745,8.242 L1.81807657,15.395 C1.32407657,15.76 1.00007657,16.341 1.00007657,17 L1.00007657,18 C1.00007657,19.103 1.89607657,20 3.00007657,20 L17.0000766,20 C18.1040766,20 19.0000766,19.103 19.0000766,18 L19.0000766,17 C19.0000766,16.341 18.6760766,15.76 18.1820766,15.396 L19.9710766,8.243 C20.0640766,7.863 19.9300766,7.465 19.6250766,7.22 Z M6.55307657,11.895 C7.02007657,12.128 7.58907657,11.963 7.85807657,11.515 L10.0000766,7.943 L12.1430766,11.514 C12.4120766,11.962 12.9810766,12.127 13.4480766,11.894 L17.5030766,9.867 L16.2200766,15 L3.78107657,15 L2.49807657,9.867 L6.55307657,11.895 Z M16.9970766,18 L3.00007657,18 L3.00007657,17 L17.0000766,17 L16.9970766,18 Z" id="Shape"></path>
                <circle id="Oval" cx="10.0000766" cy="2" r="2"></circle>
            </g>
        </g>
    </g>
</svg>