<?xml version="1.0" encoding="UTF-8"?>
<svg width="20px" height="20px" viewBox="0 0 20 20" version="1.1" xmlns="http://www.w3.org/2000/svg" xmlns:xlink="http://www.w3.org/1999/xlink">
    <title>Line_Icons</title>
    <g id="Page-1" stroke="none" stroke-width="1"  fill-rule="evenodd">
        <g id="measuring-tool" transform="translate(-2.000000, -2.000000)"  fill-rule="nonzero">
            <g id="Group" transform="translate(2.000000, 2.000000)">
                <path d="M19,8 L9,8 C8.448,8 8,8.448 8,9 L8,19 C8,19.553 8.448,20 9,20 L17,20 C17.265,20 17.52,19.895 17.707,19.707 L19.707,17.707 C19.895,17.52 20,17.266 20,17 L20,9 C20,8.448 19.552,8 19,8 Z M10,10 L18,10 L18,16 L16,16 L16,18 L10,18 L10,10 Z" id="Shape"></path>
                <path d="M19,0 L1,0 C0.448,0 0,0.448 0,1 L0,19 C0,19.553 0.448,20 1,20 L6,20 C6.552,20 7,19.553 7,19 L7,7 L19,7 C19.552,7 20,6.553 20,6 L20,1 C20,0.448 19.552,0 19,0 Z M18,5 L17,5 L17,3 L15,3 L15,5 L13,5 L13,3 L11,3 L11,5 L9,5 L9,3 L7,3 L7,5 L6,5 C5.448,5 5,5.448 5,6 L5,7 L3,7 L3,9 L5,9 L5,11 L3,11 L3,13 L5,13 L5,15 L3,15 L3,17 L5,17 L5,18 L2,18 L2,2 L18,2 L18,5 Z" id="Shape"></path>
            </g>
        </g>
    </g>
</svg>