<?xml version="1.0" encoding="UTF-8"?>
<svg width="24px" height="22px" viewBox="0 0 24 22" version="1.1" xmlns="http://www.w3.org/2000/svg" xmlns:xlink="http://www.w3.org/1999/xlink">
    <title>Line_Icons</title>
    <g id="Page-1" stroke="none" stroke-width="1"  fill-rule="evenodd">
        <g id="user-chat-1" transform="translate(0.000000, -2.000000)"  fill-rule="nonzero">
            <g id="Group" transform="translate(0.001000, 2.000000)">
                <path d="M15,14 C14.848,14 14.694,13.965 14.553,13.895 C14.214,13.726 14,13.379 14,13 L14,11 L13,11 L13,9 L15,9 C15.552,9 16,9.448 16,10 L16,11 L18.4,9.2 C18.573,9.07 18.784,9 19,9 L22,9 L22,2 L12,2 L12,5 L10,5 L10,2 C10,0.896 10.897,0 12,0 L22,0 C23.103,0 24,0.896 24,2 L24,9 C24,10.103 23.103,11 22,11 L19.333,11 L15.6,13.8 C15.423,13.932 15.212,14 15,14 Z" id="Path"></path>
                <path d="M8,14 C5.794,14 4,12.206 4,10 C4,7.795 5.794,6 8,6 C10.206,6 12,7.795 12,10 C12,12.206 10.206,14 8,14 Z M8,8 C6.897,8 6,8.896 6,10 C6,11.103 6.897,12 8,12 C9.103,12 10,11.103 10,10 C10,8.896 9.103,8 8,8 Z" id="Shape"></path>
                <path d="M16,22 L0,22 L0,21 C0,17.467 3.29,15 8,15 C12.71,15 16,17.467 16,21 L16,22 Z M2.159,20 L13.842,20 C13.244,18.192 11.009,17 8.001,17 C4.993,17 2.757,18.192 2.159,20 Z" id="Shape"></path>
            </g>
        </g>
    </g>
</svg>