<?xml version="1.0" encoding="UTF-8"?>
<svg width="24px" height="20px" viewBox="0 0 24 20" version="1.1" xmlns="http://www.w3.org/2000/svg" xmlns:xlink="http://www.w3.org/1999/xlink">
    <title>Line_Icons</title>
    <g id="Page-1" stroke="none" stroke-width="1"  fill-rule="evenodd">
        <g id="small-caps" transform="translate(0.000000, -2.000000)"  fill-rule="nonzero">
            <g id="Group" transform="translate(0.000000, 2.000000)">
                <path d="M23,6 L15,6 C14.448,6 14,6.448 14,7 L14,10 L16,10 L16,8 L18,8 L18,18 L16,18 L16,20 L22,20 L22,18 L20,18 L20,8 L22,8 L22,10 L24,10 L24,7 C24,6.448 23.552,6 23,6 Z" id="Path"></path>
                <path d="M9,2 L14,2 L14,4 L16,4 L16,1 C16,0.448 15.552,0 15,0 L1,0 C0.448,0 0,0.448 0,1 L0,4 L2,4 L2,2 L7,2 L7,18 L4,18 L4,20 L12,20 L12,18 L9,18 L9,2 Z" id="Path"></path>
            </g>
        </g>
    </g>
</svg>