<?xml version="1.0" encoding="UTF-8"?>
<svg width="16px" height="21px" viewBox="0 0 16 21" version="1.1" xmlns="http://www.w3.org/2000/svg" xmlns:xlink="http://www.w3.org/1999/xlink">
    <title>user_stories_and_jira </title>
    <g id="Page-1" stroke="none" stroke-width="1" fill-rule="evenodd">
        <g id="user_stories_and_jira-" transform="translate(0.000286, 0.951020)" fill-rule="nonzero">
            <path d="M3.26016729,1.19749077 C2.5355986,1.19749077 1.94890527,1.78346099 1.94890527,2.50983749 C1.94890527,3.23440617 2.5355986,3.82242523 3.26016729,3.82242523 C3.98533858,3.82242523 4.57142932,3.23440617 4.57142932,2.50983749 C4.57142932,1.78346099 3.98533858,1.19749077 3.26016729,1.19749077" id="Path"></path>
            <path d="M11.874966,1.19749077 C11.1500358,1.19749077 10.5640655,1.78346099 10.5640655,2.50983749 C10.5640655,3.23440617 11.1500358,3.82242523 11.874966,3.82242523 C12.5978475,3.82242523 13.185987,3.23440617 13.185987,2.50983749 C13.185987,1.78346099 12.5978475,1.19845493 11.874966,1.19749077" id="Path"></path>
            <path d="M7.56756664,7.5097793e-16 C6.84299795,7.5097793e-16 6.25630462,0.585849698 6.25630462,1.31246724 C6.25630462,2.03703593 6.84299795,2.62517552 7.56756664,2.62517552 C8.29261741,2.62517552 8.87858763,2.03703593 8.87858763,1.31246724 C8.87858763,0.585849698 8.29261741,7.5097793e-16 7.56756664,7.5097793e-16" id="Path"></path>
            <path d="M14.9748714,4.85444148 C14.901836,4.7990021 14.8142177,4.77019771 14.7252737,4.77019771 C14.6758603,4.77019771 14.6259649,4.77923674 14.5787208,4.79743533 C13.6908469,5.13694132 12.7892338,5.39473446 11.9663205,5.58648243 C11.7984355,5.62565156 11.6628501,5.75026966 11.6066875,5.89995601 C11.0070985,7.54228761 9.47612781,9.1061604 7.86983182,10.7441533 C7.80535341,10.8053776 7.71508362,10.8861263 7.56804872,10.8861263 C7.42137539,10.8861263 7.33194925,10.8079086 7.26626563,10.7441533 C5.66021068,9.1061604 4.12923995,7.54771102 3.52940989,5.90525891 C3.47312686,5.75569309 3.3375414,5.63107499 3.17001803,5.59178533 C2.3466226,5.40003736 1.44271955,5.13428987 0.555930403,4.79478388 C0.508445362,4.77670582 0.458549914,4.76766679 0.409016026,4.76766679 C0.320071966,4.76766679 0.234020395,4.79562752 0.161226069,4.85118743 C0.0474548058,4.93796213 -0.0116001937,5.07872996 0.00189809186,5.21395385 C0.13784511,6.57969111 0.677535493,7.91481617 1.65146091,9.31393759 C2.56693391,10.6292973 3.76105011,11.846915 4.91551508,13.0242789 C7.04270027,15.1940077 9.05213702,17.2432162 9.22845838,19.6195171 C9.24436706,19.8338024 9.42297831,20 9.63834828,20 L12.1374594,20 C12.2500255,20 12.3575297,19.9537201 12.4352654,19.8721278 C12.5126395,19.790656 12.5536164,19.6812235 12.5479519,19.5686575 C12.4693726,17.9799575 11.8714709,16.3889676 10.7201395,14.7052975 C10.4788576,14.3522933 10.2204618,14.0088101 9.9502551,13.6726786 C9.840461,13.5357674 9.88637928,13.3657131 9.970382,13.2799026 C10.0534206,13.1949357 10.1368207,13.1102099 10.2207029,13.0242789 C11.3752884,11.8467944 12.5691635,10.6292973 13.4848776,9.31393759 C14.4586825,7.91469566 14.9981318,6.58740441 15.1341993,5.2219082 C15.1478182,5.08463545 15.0855092,4.93904681 14.9748714,4.85444148" id="Path"></path>
            <path d="M4.88622863,14.8727003 C4.82717363,14.8108734 4.74027842,14.7477207 4.59444872,14.7477207 C4.40788313,14.7477207 4.2972454,14.8766775 4.25542482,14.9405533 C3.20424582,16.5402207 2.6613014,18.0499798 2.58621718,19.5672112 C2.58079376,19.6790542 2.62201174,19.790174 2.69938584,19.8718869 C2.7771215,19.9531176 2.88607195,20 2.99839697,20 L5.49328991,20 C5.70793676,20 5.88871738,19.8319945 5.90450555,19.6179504 C5.95886025,18.886753 6.1865233,18.1537478 6.60099298,17.383502 C6.7446533,17.1170313 6.63305141,16.8667105 6.55037441,16.7596884 C6.13915878,16.2249393 5.635504,15.6545162 4.88622863,14.8727003" id="Path"></path>
            <path d="M7.57033862,6.0788083 C8.35360074,6.0788083 8.80784216,6.03180534 8.96741117,6.03180534 C9.1607259,6.03180534 9.34548369,6.19016915 9.34548369,6.4119267 C9.34548369,6.47664616 9.33017759,6.522926 9.31499202,6.56378241 C9.21110344,6.84146143 8.73769928,7.84057561 7.85633354,8.69759622 C7.75750681,8.7937715 7.64542282,8.81172905 7.56828977,8.81172905 L7.56732561,8.81172905 C7.49031306,8.81172905 7.37834961,8.7937715 7.27952287,8.69759622 C6.39815714,7.84057561 5.92463246,6.84146143 5.8209849,6.56378241 C5.80567881,6.522926 5.79037272,6.47664616 5.79037272,6.4119267 C5.79037272,6.19016915 5.97537154,6.03180534 6.16868628,6.03180534 C6.3282553,6.03180534 6.78225567,6.0788083 7.56515623,6.0788083 L7.57033862,6.0788083" id="Path"></path>
        </g>
    </g>
</svg>