<?xml version="1.0" encoding="UTF-8"?>
<svg width="20px" height="20px" viewBox="0 0 20 20" version="1.1" xmlns="http://www.w3.org/2000/svg" xmlns:xlink="http://www.w3.org/1999/xlink">
    <title>Line_Icons</title>
    <g id="Page-1" stroke="none" stroke-width="1"  fill-rule="evenodd">
        <g id="paint-palette" transform="translate(-2.000000, -2.000000)"  fill-rule="nonzero">
            <g id="Group" transform="translate(2.000000, 2.000000)">
                <path d="M10,0 C4.486,0 0,4.486 0,10 C0,15.514 4.486,20 10,20 C10.462,20 10.923,19.969 11.368,19.907 C12.43,19.761 13.301,19.04 13.641,18.026 C13.984,17.011 13.725,15.911 12.966,15.153 L11.979,14.165 C11.75,13.936 11.682,13.594 11.806,13.293 C11.837,13.221 11.928,13 12.545,13 L17.2,13 C18.692,13 20,11.599 20,10 C20,4.486 15.514,0 10,0 Z M17.2,11 L12.545,11 C11.303,11 10.361,11.558 9.959,12.528 C9.523,13.578 9.761,14.776 10.565,15.58 C11.076,16.092 11.977,16.703 11.746,17.388 C11.529,18.035 10.685,18 10,18 C5.589,18 2,14.411 2,10 C2,5.589 5.589,2 10,2 C14.411,2 18,5.589 18,10 C18,10.486 17.589,11 17.2,11 Z" id="Shape"></path>
                <path d="M9,3 C7.897,3 7,3.898 7,5 C7,6.103 7.897,7 9,7 C10.103,7 11,6.103 11,5 C11,3.898 10.103,3 9,3 Z" id="Path"></path>
                <path d="M5,8 C3.897,8 3,8.898 3,10 C3,11.103 3.897,12 5,12 C6.103,12 7,11.103 7,10 C7,8.898 6.103,8 5,8 Z" id="Path"></path>
                <path d="M14,6 C12.897,6 12,6.898 12,8 C12,9.103 12.897,10 14,10 C15.103,10 16,9.103 16,8 C16,6.898 15.103,6 14,6 Z" id="Path"></path>
            </g>
        </g>
    </g>
</svg>