<?xml version="1.0" encoding="UTF-8" standalone="no"?>
<svg width="11px" height="10px" viewBox="0 0 11 10" version="1.1" xmlns="http://www.w3.org/2000/svg" xmlns:xlink="http://www.w3.org/1999/xlink" xmlns:sketch="http://www.bohemiancoding.com/sketch/ns">
    <title>Slice 1</title>
    <description>Created with Sketch (http://www.bohemiancoding.com/sketch)</description>
    <defs></defs>
    <g id="Page-1" stroke="none" stroke-width="1" fill-rule="evenodd" sketch:type="MSPage">
        <path d="M10.2857143,5.14285714 C10.2857143,6.26339846 9.95870863,7.27120088 9.3046875,8.16629464 C8.65066637,9.0613884 7.80580875,9.68080185 6.77008929,10.0245536 C6.64955297,10.0468751 6.56138421,10.0312503 6.50558036,9.97767857 C6.44977651,9.92410688 6.421875,9.85714326 6.421875,9.77678571 L6.421875,8.36383929 C6.421875,7.93080141 6.30580473,7.61384029 6.07366071,7.41294643 C6.32812627,7.38616058 6.55691863,7.34598241 6.76004464,7.29241071 C6.96317066,7.23883902 7.17298999,7.15178632 7.38950893,7.03125 C7.60602787,6.91071368 7.78682963,6.76227767 7.93191964,6.5859375 C8.07700965,6.40959733 8.19531204,6.17522468 8.28683036,5.8828125 C8.37834867,5.59040032 8.42410714,5.25446618 8.42410714,4.875 C8.42410714,4.33481873 8.24776962,3.8750019 7.89508929,3.49553571 C8.06026868,3.08928368 8.04241172,2.63393109 7.84151786,2.12946429 C7.71651723,2.08928551 7.53571547,2.11383884 7.29910714,2.203125 C7.06249882,2.29241116 6.85714373,2.39062446 6.68303571,2.49776786 L6.42857143,2.65848214 C6.01339078,2.54241013 5.58482364,2.484375 5.14285714,2.484375 C4.70089065,2.484375 4.2723235,2.54241013 3.85714286,2.65848214 C3.78571393,2.60937475 3.69084881,2.5491075 3.57254464,2.47767857 C3.45424048,2.40624964 3.26785842,2.320313 3.01339286,2.21986607 C2.7589273,2.11941914 2.56696493,2.08928551 2.4375,2.12946429 C2.24107045,2.63393109 2.2254456,3.08928368 2.390625,3.49553571 C2.03794467,3.8750019 1.86160714,4.33481873 1.86160714,4.875 C1.86160714,5.25446618 1.90736561,5.58928426 1.99888393,5.87946429 C2.09040224,6.16964431 2.20758857,6.40401696 2.35044643,6.58258929 C2.49330429,6.76116161 2.67298999,6.91071368 2.88950893,7.03125 C3.10602787,7.15178632 3.3158472,7.23883902 3.51897321,7.29241071 C3.72209923,7.34598241 3.95089158,7.38616058 4.20535714,7.41294643 C4.02678482,7.57366152 3.91741092,7.80356993 3.87723214,8.10267857 C3.78348167,8.14732165 3.68303625,8.18080346 3.57589286,8.203125 C3.46874946,8.22544654 3.34151859,8.23660714 3.19419643,8.23660714 C3.04687426,8.23660714 2.90067037,8.18861655 2.75558036,8.09263393 C2.61049035,7.99665131 2.48660766,7.85714377 2.38392857,7.67410714 C2.29910672,7.53124929 2.19084887,7.41517902 2.05915179,7.32589286 C1.9274547,7.2366067 1.81696473,7.1830358 1.72767857,7.16517857 L1.59375,7.14508929 C1.49999953,7.14508929 1.43526804,7.15513383 1.39955357,7.17522321 C1.36383911,7.1953126 1.3526785,7.22098199 1.36607143,7.25223214 C1.37946435,7.2834823 1.39955344,7.31473199 1.42633929,7.34598214 C1.45312513,7.3772323 1.4821427,7.40401775 1.51339286,7.42633929 L1.56026786,7.45982143 C1.65848263,7.50446451 1.75557988,7.58928509 1.8515625,7.71428571 C1.94754512,7.83928634 2.01785692,7.95312449 2.0625,8.05580357 L2.12946429,8.20982143 C2.18750029,8.37946513 2.28571359,8.51674055 2.42410714,8.62165179 C2.56250069,8.72656302 2.71205277,8.79352664 2.87276786,8.82254464 C3.03348295,8.85156265 3.18861532,8.86718749 3.33816964,8.86941964 C3.48772396,8.8716518 3.61160665,8.86383937 3.70982143,8.84598214 L3.86383929,8.81919643 C3.86383929,8.98884013 3.86495535,9.18749886 3.8671875,9.41517857 C3.86941965,9.64285828 3.87053571,9.76339279 3.87053571,9.77678571 C3.87053571,9.85714326 3.84151815,9.92410688 3.78348214,9.97767857 C3.72544614,10.0312503 3.63616132,10.0468751 3.515625,10.0245536 C2.47990554,9.68080185 1.63504791,9.0613884 0.981026786,8.16629464 C0.327005658,7.27120088 0,6.26339846 0,5.14285714 C0,4.20981676 0.229908415,3.3493343 0.689732143,2.56138393 C1.14955587,1.77343356 1.77343356,1.14955587 2.56138393,0.689732143 C3.3493343,0.229908415 4.20981676,-1.77635684e-15 5.14285714,0 C6.07589752,-1.77635684e-15 6.93637999,0.229908415 7.72433036,0.689732143 C8.51228073,1.14955587 9.13615842,1.77343356 9.59598214,2.56138393 C10.0558059,3.3493343 10.2857143,4.20981676 10.2857143,5.14285714 L10.2857143,5.14285714 Z" id="github-path" sketch:type="MSShapeGroup"></path>
    </g>
</svg>