<?xml version="1.0" encoding="UTF-8"?><!DOCTYPE svg PUBLIC "-//W3C//DTD SVG 1.1//EN" "http://www.w3.org/Graphics/SVG/1.1/DTD/svg11.dtd"><svg xmlns="http://www.w3.org/2000/svg"><symbol id="branding" viewBox="0 0 19 19"><title>Line_Icons</title><g fill-rule="nonzero"><path d="M.294 17.212L10.899 6.606l1.415 1.414L1.708 18.626zM12.314 5.192l2.83-2.83 1.414 1.415-2.83 2.83zM13.796 10.73l.518-1.932 3.865 1.035-.518 1.932zM11.298 16.714l-1.035-3.865 1.932-.517 1.035 3.865zM9.087.741l1.035 3.864-1.931.517L7.155 1.26zM2.723 5.691l3.865 1.036-.518 1.93-3.864-1.035z"/></g></symbol><symbol id="css" viewBox="0 0 116 75"><title>css</title><g fill-rule="nonzero"><path d="M1.633 41.058l8.098 8.17-.088 19.63v.016c0 .15.116.292.13.44.02.202.066.414.105.61.02.09.078.17.102.257.065.246.138.497.236.727.02.041.05.076.067.114.123.27.26.53.422.775.01.015.022.023.032.04.183.262.382.51.607.732.044.044.098.074.143.115.2.186.402.366.63.518.181.122.383.213.578.315.104.052.2.117.306.162.629.27 1.318.42 2.046.418.015 0 .027-.005.042-.005l7.272.005c2.888 0 5.23-2.329 5.227-5.214 0-2.895-2.343-5.214-5.238-5.214h-2.076V47.362a5.302 5.302 0 0 0-.083-1.308 5.222 5.222 0 0 0-2.35-3.587l-5.24-5.24 5.902-5.91a5.208 5.208 0 0 0 1.388-1.95c.106-.25.174-.51.239-.773.011-.046.028-.089.041-.135.094-.44.124-1.007.104-1.458l.004-16.582h2.076c2.894 0 5.236-2.221 5.236-5.116.002-2.885-2.34-5.172-5.226-5.172l-7.283.034c-.01 0-.023.01-.03.01a5.218 5.218 0 0 0-2.046.422c-.12.053-.229.132-.343.192-.183.093-.372.18-.541.292a5.332 5.332 0 0 0-.631.52c-.044.041-.1.075-.143.118-.22.221-.42.464-.599.722-.013.02-.028.032-.042.05-.158.238-.29.495-.413.757-.02.047-.052.088-.069.134-.096.22-.155.456-.216.69-.024.1-.068.193-.09.293-.038.19-.125.388-.146.587-.015.155-.132.303-.132.464v.017l.087 19.779-8.127 8.18C.553 34.441.069 35.821.097 37.194a5.222 5.222 0 0 0 1.536 3.863zM113.557 33.173l-8.098-8.17.087-19.63V5.36c0-.15-.115-.292-.128-.44-.021-.204-.065-.414-.104-.61-.021-.09-.078-.172-.104-.26a5.462 5.462 0 0 0-.235-.724c-.02-.041-.05-.076-.067-.117a5.493 5.493 0 0 0-.422-.773c-.01-.014-.022-.024-.032-.038a5.274 5.274 0 0 0-.606-.734c-.043-.042-.097-.074-.142-.116a5.192 5.192 0 0 0-.63-.519c-.182-.123-.384-.215-.579-.314-.105-.052-.198-.12-.306-.166a5.193 5.193 0 0 0-2.047-.415c-.016 0-.027.004-.04.004L92.83.134c-2.887 0-5.23 2.33-5.228 5.214 0 2.895 2.344 5.214 5.24 5.214h2.073l.003 16.307c-.023.435-.005.878.082 1.308a5.221 5.221 0 0 0 2.35 3.587l5.24 5.24-5.902 5.91a5.175 5.175 0 0 0-1.387 1.95c-.106.25-.176.51-.24.774-.013.045-.029.089-.04.135a6.167 6.167 0 0 0-.105 1.458l-.004 16.581h-2.076c-2.893 0-5.236 2.221-5.236 5.114-.002 2.885 2.34 5.173 5.227 5.173l7.284-.034c.01 0 .02-.01.029-.01a5.218 5.218 0 0 0 2.048-.421c.117-.056.228-.132.342-.194.184-.094.372-.18.541-.291.228-.156.43-.335.632-.52.044-.042.099-.076.142-.118.221-.222.42-.465.6-.723.012-.019.026-.032.041-.05.158-.24.29-.495.412-.757.02-.047.052-.088.068-.134a4.56 4.56 0 0 0 .216-.69c.025-.1.069-.193.09-.294.04-.189.127-.387.146-.586.016-.155.134-.304.134-.464v-.017l-.09-19.78 8.13-8.176c1.047-1.051 1.53-2.432 1.503-3.808a5.248 5.248 0 0 0-1.538-3.859z"/></g></symbol><symbol id="design_lead" viewBox="0 0 22 24"><title>Line_Icons</title><path d="M17.414 2.301a1 1 0 0 0-1.414 0l-.722.722L13.135.879 6 8.015 7.414 9.43l5.722-5.722.729.729L3.142 15.159c-.075.075-.15.195-.194.292-.01.022-2.189 6.527-2.189 6.527A.992.992 0 0 0 1 23a.992.992 0 0 0 1.022.241s6.505-2.18 6.527-2.189c.097-.044.217-.119.292-.194L21.7 8a1.004 1.004 0 0 0 0-1.415l-4.286-4.284zm-3.563 4.978l2.871 2.873-8.585 8.585-2.872-2.873 8.586-8.585zM3.288 20.712l.999-2.996 1.999 1.998-2.998.998zM18.135 8.737l-2.871-2.871 1.443-1.444 2.872 2.872-1.444 1.443z" fill-rule="nonzero"/></symbol><symbol id="design_system" viewBox="0 0 24 24"><title>Line_Icons</title><g fill-rule="nonzero"><path d="M24 7V5h-1.102a4.968 4.968 0 0 0-.733-1.754l.784-.784-1.414-1.414-.784.784a4.955 4.955 0 0 0-1.752-.731V0h-2v1.102a4.96 4.96 0 0 0-1.753.731l-.783-.783-1.414 1.415.783.783A4.949 4.949 0 0 0 13.1 5h-1.102v2H13.1c.13.637.384 1.229.732 1.754l-.783.784 1.415 1.413.783-.784a4.967 4.967 0 0 0 1.753.731v1.103h2v-1.103a4.961 4.961 0 0 0 1.753-.732l.784.783 1.413-1.414-.784-.783A4.957 4.957 0 0 0 22.898 7H24zm-6.002 1a2 2 0 1 1 0-4 2 2 0 0 1 0 4z"/><path d="M19 20.277V13h-7.277c-.347-.595-.984-1-1.723-1-.739 0-1.376.405-1.723 1H3V7.723c.3-.175.548-.423.723-.723H9V5H3.723A1.994 1.994 0 1 0 1 7.723v12.554c-.595.347-1 .986-1 1.723a1.994 1.994 0 1 0 3.723 1h12.555c.347.595.984 1 1.723 1a2 2 0 0 0 2-2A1.998 1.998 0 0 0 19 20.277zM9 21H3.723A2.012 2.012 0 0 0 3 20.277V15h5.277c.175.3.423.548.723.723V21zm7.277 0H11v-5.277c.3-.175.548-.423.723-.723h5.278v5.277c-.3.174-.549.422-.724.723z"/></g></symbol><symbol id="designer" viewBox="0 0 22 24"><title>Line_Icons</title><path d="M17.414 2.301a1 1 0 0 0-1.414 0l-.722.722L13.135.879 6 8.015 7.414 9.43l5.722-5.722.729.729L3.142 15.159c-.075.075-.15.195-.194.292-.01.022-2.189 6.527-2.189 6.527A.992.992 0 0 0 1 23a.992.992 0 0 0 1.022.241s6.505-2.18 6.527-2.189c.097-.044.217-.119.292-.194L21.7 8a1.004 1.004 0 0 0 0-1.415l-4.286-4.284zm-3.563 4.978l2.871 2.873-8.585 8.585-2.872-2.873 8.586-8.585zM3.288 20.712l.999-2.996 1.999 1.998-2.998.998zM18.135 8.737l-2.871-2.871 1.443-1.444 2.872 2.872-1.444 1.443z" fill-rule="nonzero"/></symbol><symbol id="developer" viewBox="0 0 12 8"><title>Group</title><g fill-rule="nonzero"><path d="M7 5h5v2H7zM.293 1.708L2.586 4 .293 6.294l1.414 1.414L5.414 4 1.707.294z"/></g></symbol><symbol id="discovery" viewBox="0 0 22 20"><title>Line_Icons</title><g fill-rule="nonzero"><path d="M19.372 17.059a3.483 3.483 0 0 0 1.129-2.559c0-1.93-1.57-3.5-3.5-3.5s-3.5 1.57-3.5 3.5c0 1.013.439 1.918 1.129 2.559-1.478.534-2.629 1.562-2.629 2.941h2c0-.598 1.413-1.357 3-1.357s3 .76 3 1.357h2c0-1.38-1.151-2.407-2.629-2.941zM17.001 13c.827 0 1.5.673 1.5 1.5s-.673 1.5-1.5 1.5-1.5-.673-1.5-1.5.673-1.5 1.5-1.5zM7.372 17.059A3.483 3.483 0 0 0 8.501 14.5c0-1.93-1.57-3.5-3.5-3.5s-3.5 1.57-3.5 3.5c0 1.013.439 1.918 1.129 2.559C1.152 17.593.001 18.62.001 20h2c0-.598 1.413-1.357 3-1.357s3 .76 3 1.357h2c0-1.38-1.151-2.407-2.629-2.941zM5.001 13c.827 0 1.5.673 1.5 1.5s-.673 1.5-1.5 1.5-1.5-.673-1.5-1.5.673-1.5 1.5-1.5zM14.001 9h2c0-1.38-1.151-2.407-2.629-2.941A3.483 3.483 0 0 0 14.501 3.5c0-1.93-1.57-3.5-3.5-3.5s-3.5 1.57-3.5 3.5c0 1.013.439 1.918 1.129 2.559C7.152 6.593 6.001 7.62 6.001 9h2c0-.598 1.413-1.357 3-1.357s3 .759 3 1.357zm-3-7c.827 0 1.5.673 1.5 1.5s-.673 1.5-1.5 1.5-1.5-.673-1.5-1.5.673-1.5 1.5-1.5z"/></g></symbol><symbol id="discovery_sessions" viewBox="0 0 22 20"><title>Line_Icons</title><g fill-rule="nonzero"><path d="M19.372 17.059a3.483 3.483 0 0 0 1.129-2.559c0-1.93-1.57-3.5-3.5-3.5s-3.5 1.57-3.5 3.5c0 1.013.439 1.918 1.129 2.559-1.478.534-2.629 1.562-2.629 2.941h2c0-.598 1.413-1.357 3-1.357s3 .76 3 1.357h2c0-1.38-1.151-2.407-2.629-2.941zM17.001 13c.827 0 1.5.673 1.5 1.5s-.673 1.5-1.5 1.5-1.5-.673-1.5-1.5.673-1.5 1.5-1.5zM7.372 17.059A3.483 3.483 0 0 0 8.501 14.5c0-1.93-1.57-3.5-3.5-3.5s-3.5 1.57-3.5 3.5c0 1.013.439 1.918 1.129 2.559C1.152 17.593.001 18.62.001 20h2c0-.598 1.413-1.357 3-1.357s3 .76 3 1.357h2c0-1.38-1.151-2.407-2.629-2.941zM5.001 13c.827 0 1.5.673 1.5 1.5s-.673 1.5-1.5 1.5-1.5-.673-1.5-1.5.673-1.5 1.5-1.5zM14.001 9h2c0-1.38-1.151-2.407-2.629-2.941A3.483 3.483 0 0 0 14.501 3.5c0-1.93-1.57-3.5-3.5-3.5s-3.5 1.57-3.5 3.5c0 1.013.439 1.918 1.129 2.559C7.152 6.593 6.001 7.62 6.001 9h2c0-.598 1.413-1.357 3-1.357s3 .759 3 1.357zm-3-7c.827 0 1.5.673 1.5 1.5s-.673 1.5-1.5 1.5-1.5-.673-1.5-1.5.673-1.5 1.5-1.5z"/></g></symbol><symbol id="documentation" viewBox="0 0 22 19"><title>Line_Icons</title><g fill-rule="nonzero"><path d="M19 0c-1.654 0-3 1.346-3 3v11.303l3 4.5 3-4.5V3c0-1.654-1.346-3-3-3zm1 13.698l-1 1.5-1-1.5V6h2v7.698zM18 4V3a1.001 1.001 0 0 1 2 0v1h-2zM12 1H2C.897 1 0 1.898 0 3v14c0 1.103.897 2 2 2h10c1.103 0 2-.897 2-2V3c0-1.102-.897-2-2-2zM2 17V3h10l.001 14H2z"/><path d="M4 5h6v2H4zM4 9h6v2H4zM4 13h4v2H4z"/></g></symbol><symbol id="html" viewBox="0 0 96 64"><title>Group</title><g fill-rule="nonzero"><path d="M28.5 7c-1.7-1.6-4.5-1.6-6.1.2L1.7 29c-1.6 1.7-1.6 4.3 0 5.9l20.7 21.9c.8.9 2 1.4 3.1 1.4s2.1-.4 3-1.2c1.7-1.6 1.8-4.4.2-6.1L10.7 32l17.9-18.9c1.7-1.8 1.6-4.5-.1-6.1zM94.3 29L73.6 7.1c-1.6-1.7-4.4-1.8-6.1-.2-1.7 1.6-1.8 4.4-.2 6.1l18 19-17.9 18.9c-1.6 1.7-1.6 4.5.2 6.1.8.8 1.9 1.2 3 1.2s2.3-.5 3.1-1.4L94.3 35c1.6-1.7 1.6-4.3 0-6zM56.1.4c-2.3-.6-4.7.8-5.3 3.1l-14 54.8c-.6 2.3.8 4.7 3.1 5.3.4.1.7.1 1.1.1 1.9 0 3.7-1.3 4.2-3.2l14-54.8c.6-2.3-.8-4.7-3.1-5.3z"/></g></symbol><symbol id="information_architecture" viewBox="0 0 20 20"><title>Line_Icons</title><path d="M18.998 13h-2v-1c0-1.654-1.345-3-2.998-3h-3V7h2a1 1 0 0 0 1-1V1a1 1 0 0 0-1-1H7a1 1 0 0 0-1 1v5a1 1 0 0 0 1 1h2v2H6c-1.654 0-3 1.346-3 3v1H1a1 1 0 0 0-1 1v5a1 1 0 0 0 1 1h6a1 1 0 0 0 1-1v-5a1 1 0 0 0-1-1H5v-1c0-.551.449-1 1-1h8a1 1 0 0 1 .998 1v1H13a1 1 0 0 0-1 1v5a1 1 0 0 0 1 1h5.998a1 1 0 0 0 1-1v-5a1 1 0 0 0-1-1zM8 5V2h4v3H8zM6 18H2v-3h4v3zm11.998 0H14v-3h3.998v3z" fill-rule="nonzero"/></symbol><symbol id="javascript" viewBox="0 0 116 75"><title>Group</title><g transform="translate(.095 .13)" fill-rule="evenodd"><g fill-rule="nonzero"><path d="M1.538 40.927l8.099 8.17-.088 19.63v.016c0 .151.116.292.13.44.019.202.065.415.104.61.02.09.078.171.102.257.065.247.138.497.237.728.019.04.05.075.067.113.122.27.26.53.422.775.01.015.022.023.032.04.182.262.381.51.607.732.043.044.097.074.142.115.2.186.403.367.63.518.182.122.383.214.578.316.104.052.2.116.306.161.63.27 1.318.42 2.047.419.015 0 .027-.005.04-.005l7.274.005c2.887 0 5.23-2.33 5.226-5.215 0-2.895-2.343-5.214-5.237-5.214H20.18l-.001-16.307a5.302 5.302 0 0 0-.083-1.307 5.222 5.222 0 0 0-2.35-3.588l-5.239-5.239 5.901-5.91a5.208 5.208 0 0 0 1.388-1.95c.106-.25.174-.51.24-.773.01-.046.027-.09.04-.135.095-.441.125-1.007.105-1.458l.004-16.583h2.076c2.893 0 5.235-2.22 5.235-5.115C27.498 2.287 25.157 0 22.271 0l-7.284.034c-.01 0-.022.011-.03.011a5.218 5.218 0 0 0-2.046.422c-.12.052-.229.131-.343.191-.183.093-.371.18-.54.293a5.332 5.332 0 0 0-.632.519c-.044.042-.1.075-.142.118-.22.221-.42.465-.6.722-.012.02-.027.032-.041.05-.159.238-.29.495-.413.758-.021.046-.052.087-.07.133-.096.22-.155.456-.216.69-.024.1-.068.194-.089.293-.039.19-.126.389-.146.587-.015.155-.132.304-.132.464v.017l.087 19.78-8.128 8.179C.458 34.31-.026 35.69.002 37.064a5.222 5.222 0 0 0 1.536 3.863zM113.463 33.042l-8.099-8.17.087-19.63V5.23c0-.151-.115-.293-.128-.44-.02-.204-.065-.415-.104-.61-.021-.09-.078-.172-.103-.26a5.462 5.462 0 0 0-.236-.725c-.02-.041-.05-.075-.067-.116a5.493 5.493 0 0 0-.422-.774c-.01-.014-.022-.024-.032-.038a5.274 5.274 0 0 0-.606-.733c-.043-.042-.097-.074-.142-.116a5.192 5.192 0 0 0-.63-.52c-.182-.123-.384-.215-.578-.314-.106-.052-.199-.12-.307-.165a5.193 5.193 0 0 0-2.047-.416c-.016 0-.027.004-.04.004L92.735.003c-2.887 0-5.23 2.33-5.227 5.215 0 2.894 2.343 5.214 5.238 5.214h2.074l.003 16.307c-.023.434-.005.877.083 1.307a5.221 5.221 0 0 0 2.35 3.588l5.239 5.239-5.901 5.91a5.175 5.175 0 0 0-1.388 1.95c-.106.25-.175.51-.24.774-.012.045-.028.09-.04.135a6.167 6.167 0 0 0-.105 1.458l-.004 16.581h-2.076c-2.893 0-5.235 2.222-5.235 5.114-.002 2.885 2.339 5.174 5.226 5.174l7.284-.034c.011 0 .021-.011.03-.011a5.218 5.218 0 0 0 2.047-.421c.117-.055.229-.131.343-.193.183-.095.371-.18.54-.292.228-.155.43-.335.632-.52.044-.042.1-.075.142-.117.222-.223.421-.466.6-.724.012-.019.026-.032.041-.05.159-.24.29-.495.412-.757.021-.046.052-.087.068-.133a4.56 4.56 0 0 0 .217-.69c.025-.1.068-.194.09-.294.039-.19.126-.388.145-.586.016-.156.134-.305.134-.464v-.017l-.09-19.78 8.13-8.177c1.048-1.051 1.53-2.432 1.503-3.807a5.248 5.248 0 0 0-1.537-3.86z"/></g><circle cx="60.405" cy="60.369" r="13.5"/></g></symbol><symbol id="logo_design" viewBox="0 0 20 20"><title>Line_Icons</title><g transform="translate(0 .001)" fill-rule="nonzero"><path d="M19.625 7.22a1 1 0 0 0-1.072-.114l-5.172 2.586-2.523-4.206c-.36-.603-1.354-.603-1.715 0L6.62 9.692 1.447 7.105A1 1 0 0 0 .03 8.242l1.79 7.153A1.993 1.993 0 0 0 1 17v1c0 1.103.896 2 2 2h14c1.104 0 2-.897 2-2v-1a1.99 1.99 0 0 0-.818-1.604l1.79-7.153a1.004 1.004 0 0 0-.347-1.023zM6.553 11.895a1.001 1.001 0 0 0 1.305-.38L10 7.943l2.143 3.571c.27.448.838.613 1.305.38l4.055-2.027L16.22 15H3.781L2.498 9.867l4.055 2.028zM16.997 18H3v-1h14l-.003 1z"/><circle cx="10" cy="2" r="2"/></g></symbol><symbol id="prototypes" viewBox="0 0 20 20"><title>Line_Icons</title><g fill-rule="nonzero"><path d="M19 8H9a1 1 0 0 0-1 1v10a1 1 0 0 0 1 1h8c.265 0 .52-.105.707-.293l2-2A.996.996 0 0 0 20 17V9a1 1 0 0 0-1-1zm-9 2h8v6h-2v2h-6v-8z"/><path d="M19 0H1a1 1 0 0 0-1 1v18a1 1 0 0 0 1 1h5a1 1 0 0 0 1-1V7h12a1 1 0 0 0 1-1V1a1 1 0 0 0-1-1zm-1 5h-1V3h-2v2h-2V3h-2v2H9V3H7v2H6a1 1 0 0 0-1 1v1H3v2h2v2H3v2h2v2H3v2h2v1H2V2h16v3z"/></g></symbol><symbol id="research" viewBox="0 0 18 18"><title>Line_Icons</title><g fill-rule="nonzero"><path d="M2 16V0H0v17a1 1 0 0 0 1 1h17v-2H2z"/><path d="M8 9.414l2.293 2.292a.999.999 0 0 0 1.414 0l6-6-1.414-1.414L11 9.586 8.707 7.293a.999.999 0 0 0-1.414 0l-4 4 1.414 1.414L8 9.414z"/></g></symbol><symbol id="stakeholder_interviews" viewBox="0 0 24 22"><title>Line_Icons</title><g fill-rule="nonzero"><path d="M15.001 14a1 1 0 0 1-1-1v-2h-1V9h2a1 1 0 0 1 1 1v1l2.4-1.8a1 1 0 0 1 .6-.2h3V2h-10v3h-2V2c0-1.104.897-2 2-2h10c1.103 0 2 .896 2 2v7c0 1.103-.897 2-2 2h-2.667l-3.733 2.8c-.177.132-.388.2-.6.2z"/><path d="M8.001 14c-2.206 0-4-1.794-4-4 0-2.205 1.794-4 4-4s4 1.795 4 4c0 2.206-1.794 4-4 4zm0-6c-1.103 0-2 .896-2 2 0 1.103.897 2 2 2s2-.897 2-2c0-1.104-.897-2-2-2zM16.001 22h-16v-1c0-3.533 3.29-6 8-6s8 2.467 8 6v1zM2.16 20h11.683c-.598-1.808-2.833-3-5.841-3s-5.244 1.192-5.842 3z"/></g></symbol><symbol id="typography" viewBox="0 0 24 20"><title>Line_Icons</title><g fill-rule="nonzero"><path d="M23 6h-8a1 1 0 0 0-1 1v3h2V8h2v10h-2v2h6v-2h-2V8h2v2h2V7a1 1 0 0 0-1-1z"/><path d="M9 2h5v2h2V1a1 1 0 0 0-1-1H1a1 1 0 0 0-1 1v3h2V2h5v16H4v2h8v-2H9V2z"/></g></symbol><symbol id="user_testing" viewBox="0 0 21 21"><title>Line_Icons</title><path d="M20.385 4.829L16.143.586c-.756-.756-2.075-.754-2.828 0L.587 13.314A1.976 1.976 0 0 0 0 14.727c0 .535.208 1.039.586 1.416l4.242 4.242c.377.378.88.586 1.415.586s1.037-.208 1.415-.586L20.385 7.657a1.99 1.99 0 0 0 .585-1.414 1.982 1.982 0 0 0-.585-1.414zM6.244 18.971L2 14.729l2.122-2.121 2.122 2.121 1.414-1.414-2.122-2.121 2.122-2.123 2.121 2.123 1.414-1.415-2.121-2.122 2.122-2.121 2.122 2.123 1.414-1.415-2.122-2.122L14.729 2l4.242 4.244L6.244 18.971z" fill-rule="nonzero"/></symbol><symbol id="visual_design" viewBox="0 0 20 20"><title>Line_Icons</title><g fill-rule="nonzero"><path d="M10 0C4.486 0 0 4.486 0 10s4.486 10 10 10c.462 0 .923-.031 1.368-.093a2.782 2.782 0 0 0 2.273-1.881 2.778 2.778 0 0 0-.675-2.873l-.987-.988a.799.799 0 0 1-.173-.872c.031-.072.122-.293.739-.293H17.2c1.492 0 2.8-1.401 2.8-3 0-5.514-4.486-10-10-10zm7.2 11h-4.655c-1.242 0-2.184.558-2.586 1.528a2.79 2.79 0 0 0 .606 3.052c.511.512 1.412 1.123 1.181 1.808-.217.647-1.061.612-1.746.612-4.411 0-8-3.589-8-8s3.589-8 8-8 8 3.589 8 8c0 .486-.411 1-.8 1z"/><path d="M9 3c-1.103 0-2 .898-2 2 0 1.103.897 2 2 2s2-.897 2-2c0-1.102-.897-2-2-2zM5 8c-1.103 0-2 .898-2 2 0 1.103.897 2 2 2s2-.897 2-2c0-1.102-.897-2-2-2zM14 6c-1.103 0-2 .898-2 2 0 1.103.897 2 2 2s2-.897 2-2c0-1.102-.897-2-2-2z"/></g></symbol></svg>