<?xml version="1.0" encoding="UTF-8"?><!DOCTYPE svg PUBLIC "-//W3C//DTD SVG 1.1//EN" "http://www.w3.org/Graphics/SVG/1.1/DTD/svg11.dtd"><svg xmlns="http://www.w3.org/2000/svg"><symbol id="arrow-right" viewBox="0 0 25 10"><title>Slice 1</title><path d="M20.286 6v3.49c0 .17.056.295.17.372.112.07.217.043.312-.077l3.428-4.563a.53.53 0 0 0 .09-.31c0-.112-.03-.21-.09-.296L20.768.104c-.095-.112-.2-.133-.313-.065-.113.068-.17.193-.17.373V4H1.004A1 1 0 0 0 0 5c0 .552.44 1 1.003 1h19.283z" fill-rule="evenodd"/></symbol><symbol id="chevron-down" viewBox="0 0 11 7"><title>Slice 1</title><path d="M10.788 1.43a.82.82 0 0 1-.248.6L6.18 6.39a.83.83 0 0 1-.61.255.796.796 0 0 1-.6-.254L.61 2.03a.796.796 0 0 1-.255-.6A.83.83 0 0 1 .61.82l.495-.503a.858.858 0 0 1 .61-.248.82.82 0 0 1 .602.247L5.57 3.57 8.827.318A.82.82 0 0 1 9.43.07c.23 0 .434.082.608.247l.502.502a.858.858 0 0 1 .248.61z" fill-rule="evenodd"/></symbol><symbol id="chevron-up" viewBox="0 0 12 7"><title>Slice 1</title><path d="M.958 5.038l4.36-4.36a.83.83 0 0 1 .608-.254c.24 0 .442.085.603.255l4.358 4.358c.17.16.255.362.255.603a.83.83 0 0 1-.255.61l-.495.502a.858.858 0 0 1-.61.248.82.82 0 0 1-.602-.248L5.927 3.498 2.672 6.752A.82.82 0 0 1 2.07 7a.858.858 0 0 1-.61-.248L.958 6.25a.858.858 0 0 1-.248-.61.82.82 0 0 1 .248-.602z" fill-rule="evenodd"/></symbol><symbol id="close-box" viewBox="0 0 8 8"><title>Slice 1</title><path d="M7.81 6.896l-.914.915a.623.623 0 0 1-.458.19.623.623 0 0 1-.458-.19L4 5.833l-1.98 1.98A.623.623 0 0 1 1.562 8a.623.623 0 0 1-.458-.19L.19 6.897A.623.623 0 0 1 0 6.438c0-.18.063-.332.19-.458L2.167 4 .188 2.02A.623.623 0 0 1 0 1.562c0-.18.063-.332.19-.458L1.103.19A.623.623 0 0 1 1.562 0c.18 0 .332.063.458.19L4 2.167 5.98.188A.623.623 0 0 1 6.438 0c.18 0 .332.063.458.19l.915.914c.127.126.19.28.19.458 0 .18-.063.332-.19.458L5.833 4l1.98 1.98c.125.126.188.278.188.458s-.063.332-.19.458z" fill="#000" fill-rule="evenodd"/></symbol><symbol id="facebook" viewBox="0 0 18 18"><title>Slice 1</title><path d="M10.93 5.898h3.012L13.59 9h-2.66v9H6.934V9H4.942V5.898h1.992V4.03c0-1.325.336-2.328 1.008-3.01C8.614.34 9.72 0 11.258 0h2.66v3.102h-1.664c-.304 0-.548.024-.732.07-.184.048-.316.134-.398.258-.082.123-.135.25-.16.376a3.175 3.175 0 0 0-.034.54V5.9z" fill-rule="evenodd"/></symbol><symbol id="github" viewBox="0 0 11 10"><title>Slice 1</title><path d="M10.286 5.143a5 5 0 0 1-.98 3.023 5.037 5.037 0 0 1-2.536 1.86c-.12.02-.21.005-.264-.048a.267.267 0 0 1-.084-.2V8.363c0-.433-.116-.75-.348-.95.254-.028.483-.068.686-.122.203-.053.413-.14.63-.26.216-.12.397-.27.542-.446.145-.176.263-.41.355-.703.09-.293.137-.63.137-1.008 0-.54-.176-1-.53-1.38.166-.406.148-.86-.052-1.366-.125-.04-.306-.016-.543.073-.238.09-.443.188-.617.295l-.254.16a4.753 4.753 0 0 0-1.287-.174c-.442 0-.87.058-1.286.174-.07-.05-.166-.11-.284-.18a4.015 4.015 0 0 0-.56-.258c-.254-.1-.446-.13-.575-.09-.197.504-.213.96-.047 1.366-.352.38-.528.84-.528 1.38 0 .378.045.713.137 1.003.09.29.208.524.35.703.143.178.323.328.54.448.216.122.426.21.63.262.202.054.43.094.685.12-.178.162-.288.392-.328.69a1.328 1.328 0 0 1-.3.1 1.895 1.895 0 0 1-.383.035.79.79 0 0 1-.438-.144 1.18 1.18 0 0 1-.372-.42 1.08 1.08 0 0 0-.325-.347.978.978 0 0 0-.332-.16l-.134-.02a.434.434 0 0 0-.194.03c-.036.02-.047.045-.034.076a.49.49 0 0 0 .147.174l.047.034c.098.044.196.13.292.254.096.125.166.24.21.342l.067.154a.85.85 0 0 0 .294.412c.14.105.288.172.45.2.16.03.315.045.464.047.15.002.274-.006.372-.024l.154-.027a61.787 61.787 0 0 0 .007.957c0 .08-.028.147-.087.2-.058.054-.147.07-.267.048A5.037 5.037 0 0 1 .98 8.165 5 5 0 0 1 0 5.144C0 4.21.23 3.35.69 2.56A5.12 5.12 0 0 1 2.56.69 5.03 5.03 0 0 1 5.144 0c.933 0 1.793.23 2.58.69a5.12 5.12 0 0 1 1.873 1.87c.46.79.69 1.65.69 2.583z" fill-rule="evenodd"/></symbol><symbol id="inside_page_mask" viewBox="0 0 2300 80"><title>Slice 1</title><path d="M0 81V1s422.625 72.034 1147 72.034S2300 1 2300 1v80H0z" fill-rule="evenodd"/></symbol><symbol id="mail" viewBox="0 0 18 18"><title>Slice 1</title><path d="M18 3.75v10.93c0 .44-.157.82-.472 1.134a1.548 1.548 0 0 1-1.135.472H1.607c-.442 0-.82-.158-1.135-.472A1.548 1.548 0 0 1 0 14.68V3.75c0-.442.157-.82.472-1.135a1.548 1.548 0 0 1 1.135-.472h14.786c.442 0 .82.157 1.135.472.315.315.472.693.472 1.135zm-1.286 10.93V6.963c-.214.24-.445.462-.693.663a140.7 140.7 0 0 0-4.278 3.395c-.34.288-.62.513-.834.673a4.64 4.64 0 0 1-.868.487c-.365.165-.71.247-1.03.247h-.02c-.32 0-.665-.083-1.03-.248a4.64 4.64 0 0 1-.868-.487 19.74 19.74 0 0 1-.834-.673 140.7 140.7 0 0 0-4.28-3.395c-.247-.2-.478-.422-.692-.663v7.715a.31.31 0 0 0 .095.225.31.31 0 0 0 .227.095h14.786a.31.31 0 0 0 .226-.095.31.31 0 0 0 .094-.226zm0-10.558v-.246a2.4 2.4 0 0 0-.005-.13.275.275 0 0 0-.03-.127 5.877 5.877 0 0 1-.056-.09.184.184 0 0 0-.09-.076.364.364 0 0 0-.14-.025H1.606a.31.31 0 0 0-.226.094.31.31 0 0 0-.094.226c0 1.125.492 2.076 1.476 2.853C4.055 7.62 5.397 8.683 6.79 9.787l.352.296c.194.164.348.29.462.377.114.087.263.192.447.316.185.124.354.216.508.276.154.06.298.09.432.09h.02c.134 0 .278-.03.432-.09.154-.06.323-.152.507-.276.183-.124.332-.23.446-.316.114-.087.268-.213.462-.377l.352-.296c1.393-1.105 2.735-2.166 4.028-3.184.36-.288.698-.675 1.01-1.16.31-.486.466-.926.466-1.32z" fill-rule="evenodd"/></symbol><symbol id="twitter" viewBox="0 0 21 21"><title>Slice 1</title><path d="M18.196 7.087a11.182 11.182 0 0 1-.465 3.727c-.318 1.067-.8 2.09-1.45 3.072-.648.98-1.42 1.848-2.315 2.602-.896.754-1.976 1.356-3.24 1.805-1.264.45-2.616.674-4.055.674-2.27 0-4.345-.597-6.228-1.793.293.033.62.05.98.05 1.883 0 3.56-.57 5.034-1.706a3.994 3.994 0 0 1-2.36-.798 3.908 3.908 0 0 1-1.432-1.97c.277.04.532.06.766.06.36 0 .716-.045 1.067-.136a4 4 0 0 1-2.33-1.378 3.822 3.822 0 0 1-.92-2.54v-.05a4.07 4.07 0 0 0 1.832.507A4.012 4.012 0 0 1 1.76 7.79a3.844 3.844 0 0 1-.49-1.903c0-.725.185-1.397.553-2.015a11.464 11.464 0 0 0 3.698 2.95 11.438 11.438 0 0 0 4.665 1.23 4.37 4.37 0 0 1-.1-.916c0-1.104.395-2.046 1.186-2.825.792-.778 1.75-1.167 2.87-1.167 1.172 0 2.16.42 2.964 1.26a8.028 8.028 0 0 0 2.573-.963c-.31.947-.904 1.68-1.782 2.2a8.18 8.18 0 0 0 2.335-.618 8.428 8.428 0 0 1-2.034 2.065z" fill-rule="evenodd"/></symbol><symbol id="up-arrow" viewBox="0 0 11 10"><title>Slice 1</title><path d="M10.788 5.217a.85.85 0 0 1-.248.602l-.502.5a.83.83 0 0 1-.61.256.796.796 0 0 1-.602-.255l-1.97-1.96v4.714c0 .232-.083.42-.25.566A.894.894 0 0 1 6 9.857h-.857a.894.894 0 0 1-.606-.217.714.714 0 0 1-.25-.566V4.36l-1.97 1.96a.796.796 0 0 1-.603.256.796.796 0 0 1-.602-.255l-.503-.5a.824.824 0 0 1-.255-.603.83.83 0 0 1 .254-.61L4.97.247A.793.793 0 0 1 5.57 0c.243 0 .446.083.61.248l4.36 4.36a.858.858 0 0 1 .248.61z" fill-rule="evenodd"/></symbol></svg>