<?xml version="1.0" encoding="UTF-8"?><!DOCTYPE svg PUBLIC "-//W3C//DTD SVG 1.1//EN" "http://www.w3.org/Graphics/SVG/1.1/DTD/svg11.dtd"><svg xmlns="http://www.w3.org/2000/svg"><symbol id="arrow-right" viewBox="0 0 25 10"><title>Slice 1</title><path d="M20.286 6v3.49c0 .17.056.295.17.372.112.07.217.043.312-.077l3.428-4.563c.06-.086.09-.19.09-.31 0-.112-.03-.21-.09-.296L20.768.104c-.095-.112-.2-.133-.313-.065-.113.068-.17.193-.17.373V4H1.004C.45 4 0 4.444 0 5c0 .552.44 1 1.003 1h19.283z" fill-rule="evenodd"/></symbol><symbol id="chevron-down" viewBox="0 0 11 7"><title>Slice 1</title><path d="M10.788 1.43c0 .235-.083.436-.248.6L6.18 6.39c-.17.17-.372.255-.61.255-.24 0-.44-.085-.6-.254L.61 2.03c-.17-.16-.255-.36-.255-.6C.355 1.19.44.99.61.82l.495-.503c.174-.165.377-.248.61-.248.236 0 .437.082.602.247L5.57 3.57 8.827.318C8.99.152 9.192.07 9.43.07c.23 0 .434.082.608.247l.502.502c.165.173.248.376.248.61z" fill-rule="evenodd"/></symbol><symbol id="chevron-up" viewBox="0 0 12 7"><title>Slice 1</title><path d="M.958 5.038l4.36-4.36c.17-.17.372-.254.608-.254.24 0 .442.085.603.255l4.358 4.358c.17.16.255.362.255.603 0 .237-.085.44-.255.61l-.495.502c-.174.165-.377.248-.61.248-.236 0-.437-.083-.602-.248L5.927 3.498 2.672 6.752C2.507 6.917 2.306 7 2.07 7c-.233 0-.436-.083-.61-.248L.958 6.25C.792 6.076.71 5.873.71 5.64c0-.236.082-.437.248-.602z" fill-rule="evenodd"/></symbol><symbol id="close-box" viewBox="0 0 8 8"><title>Slice 1</title><path d="M7.81 6.896l-.914.915c-.126.127-.28.19-.458.19-.18 0-.332-.063-.458-.19L4 5.833l-1.98 1.98c-.126.125-.278.188-.458.188s-.332-.063-.458-.19L.19 6.897C.062 6.77 0 6.616 0 6.438c0-.18.063-.332.19-.458L2.167 4 .188 2.02C.064 1.894 0 1.742 0 1.562s.063-.332.19-.458L1.103.19c.126-.127.28-.19.458-.19.18 0 .332.063.458.19L4 2.167 5.98.188C6.106.064 6.258 0 6.438 0s.332.063.458.19l.915.914c.127.126.19.28.19.458 0 .18-.063.332-.19.458L5.833 4l1.98 1.98c.125.126.188.278.188.458s-.063.332-.19.458z" fill="#000" fill-rule="evenodd"/></symbol><symbol id="facebook" viewBox="0 0 18 18"><title>Slice 1</title><path d="M10.93 5.898h3.012L13.59 9h-2.66v9H6.934V9H4.942V5.898h1.992V4.03c0-1.325.336-2.328 1.008-3.01C8.614.34 9.72 0 11.258 0h2.66v3.102h-1.664c-.304 0-.548.024-.732.07-.184.048-.316.134-.398.258-.082.123-.135.25-.16.376-.022.128-.034.308-.034.54V5.9z" fill-rule="evenodd"/></symbol><symbol id="github" viewBox="0 0 11 10"><title>Slice 1</title><path d="M10.286 5.143c0 1.12-.327 2.128-.98 3.023-.655.895-1.5 1.515-2.536 1.86-.12.02-.21.005-.264-.048-.056-.054-.084-.12-.084-.2V8.363c0-.433-.116-.75-.348-.95.254-.028.483-.068.686-.122.203-.053.413-.14.63-.26.216-.12.397-.27.542-.446.145-.176.263-.41.355-.703.09-.293.137-.63.137-1.008 0-.54-.176-1-.53-1.38.166-.406.148-.86-.052-1.366-.125-.04-.306-.016-.543.073-.238.09-.443.188-.617.295l-.254.16c-.417-.116-.845-.174-1.287-.174-.442 0-.87.058-1.286.174-.07-.05-.166-.11-.284-.18-.12-.072-.305-.158-.56-.258-.254-.1-.446-.13-.575-.09-.197.504-.213.96-.047 1.366-.352.38-.528.84-.528 1.38 0 .378.045.713.137 1.003.09.29.208.524.35.703.143.178.323.328.54.448.216.122.426.21.63.262.202.054.43.094.685.12-.178.162-.288.392-.328.69-.094.045-.194.08-.3.1-.108.023-.235.035-.383.035-.147 0-.293-.048-.438-.144-.146-.096-.27-.236-.372-.42-.085-.142-.193-.258-.325-.347-.133-.09-.243-.143-.332-.16l-.134-.02c-.094 0-.16.01-.194.03-.036.02-.047.045-.034.076.013.03.034.063.06.094.027.03.056.058.087.08l.047.034c.098.044.196.13.292.254.096.125.166.24.21.342l.067.154c.058.17.156.307.294.412.14.105.288.172.45.2.16.03.315.045.464.047.15.002.274-.006.372-.024l.154-.027c0 .17 0 .367.003.595l.004.362c0 .08-.028.147-.087.2-.058.054-.147.07-.267.048C2.48 9.68 1.636 9.06.98 8.165.328 7.272 0 6.264 0 5.144 0 4.21.23 3.35.69 2.56c.46-.787 1.083-1.41 1.87-1.87C3.35.23 4.21 0 5.144 0c.933 0 1.793.23 2.58.69.79.46 1.413 1.083 1.873 1.87.46.79.69 1.65.69 2.583z" fill-rule="evenodd"/></symbol><symbol id="inside_page_mask" viewBox="0 0 2300 80"><title>Slice 1</title><path d="M0 81V1s422.625 72.034 1147 72.034S2300 1 2300 1v80H0z" fill-rule="evenodd"/></symbol><symbol id="mail" viewBox="0 0 18 18"><title>Slice 1</title><path d="M18 3.75v10.93c0 .44-.157.82-.472 1.134-.315.314-.693.472-1.135.472H1.607c-.442 0-.82-.158-1.135-.472C.157 15.5 0 15.12 0 14.68V3.75c0-.442.157-.82.472-1.135.315-.315.693-.472 1.135-.472h14.786c.442 0 .82.157 1.135.472.315.315.472.693.472 1.135zm-1.286 10.93V6.963c-.214.24-.445.462-.693.663-1.793 1.38-3.22 2.51-4.278 3.395-.34.288-.62.513-.834.673-.214.16-.503.323-.868.487-.365.165-.71.247-1.03.247h-.02c-.32 0-.665-.083-1.03-.248-.365-.164-.654-.326-.868-.487-.215-.16-.493-.385-.834-.673-1.058-.884-2.485-2.015-4.28-3.395-.247-.2-.478-.422-.692-.663v7.715c0 .086.032.16.095.225.065.063.14.095.227.095h14.786c.087 0 .162-.032.226-.095.062-.064.094-.14.094-.226zm0-10.558v-.246c0-.03 0-.074-.005-.13-.004-.058-.014-.1-.03-.127-.018-.027-.036-.057-.056-.09-.02-.034-.05-.06-.09-.076-.04-.017-.088-.025-.14-.025H1.606c-.087 0-.162.03-.226.094-.062.064-.094.14-.094.226 0 1.125.492 2.076 1.476 2.853C4.055 7.62 5.397 8.683 6.79 9.787l.352.296c.194.164.348.29.462.377.114.087.263.192.447.316.185.124.354.216.508.276.154.06.298.09.432.09h.02c.134 0 .278-.03.432-.09.154-.06.323-.152.507-.276.183-.124.332-.23.446-.316.114-.087.268-.213.462-.377l.352-.296c1.393-1.105 2.735-2.166 4.028-3.184.36-.288.698-.675 1.01-1.16.31-.486.466-.926.466-1.32z" fill-rule="evenodd"/></symbol><symbol id="twitter" viewBox="0 0 21 21"><title>Slice 1</title><path d="M18.196 7.087c.008.115.012.288.012.52 0 1.07-.16 2.14-.477 3.207-.317 1.067-.8 2.09-1.45 3.072-.648.98-1.42 1.848-2.315 2.602-.896.754-1.976 1.356-3.24 1.805-1.264.45-2.616.674-4.055.674-2.27 0-4.345-.597-6.228-1.793.293.033.62.05.98.05 1.883 0 3.56-.57 5.034-1.706-.88-.017-1.666-.282-2.36-.798-.695-.515-1.172-1.172-1.432-1.97.277.04.532.06.766.06.36 0 .716-.045 1.067-.136-.937-.19-1.713-.65-2.33-1.378-.614-.73-.92-1.576-.92-2.54v-.05c.568.313 1.18.482 1.832.507-.554-.363-.993-.837-1.32-1.422-.326-.584-.49-1.22-.49-1.903 0-.725.185-1.397.553-2.015C2.836 5.1 4.068 6.082 5.52 6.822c1.453.736 3.008 1.146 4.665 1.23-.067-.314-.1-.62-.1-.916 0-1.104.395-2.046 1.186-2.825.792-.778 1.75-1.167 2.87-1.167 1.172 0 2.16.42 2.964 1.26.912-.172 1.77-.494 2.573-.963-.31.947-.904 1.68-1.782 2.2.778-.082 1.556-.288 2.335-.618-.56.808-1.24 1.496-2.034 2.065z" fill-rule="evenodd"/></symbol><symbol id="up-arrow" viewBox="0 0 11 10"><title>Slice 1</title><path d="M10.788 5.217c0 .227-.083.428-.248.602l-.502.5c-.17.17-.373.256-.61.256-.24 0-.44-.085-.602-.255l-1.97-1.96v4.714c0 .232-.083.42-.25.566-.167.145-.37.217-.606.217h-.857c-.237 0-.44-.072-.606-.217-.168-.146-.25-.334-.25-.566V4.36l-1.97 1.96c-.16.17-.362.256-.603.256-.24 0-.442-.085-.602-.255l-.503-.5c-.17-.17-.255-.37-.255-.603 0-.237.085-.44.254-.61L4.97.247C5.124.084 5.325 0 5.57 0c.243 0 .446.083.61.248l4.36 4.36c.165.173.248.376.248.61z" fill-rule="evenodd"/></symbol></svg>