<?xml version="1.0" encoding="UTF-8" standalone="no"?>
<svg width="11px" height="10px" viewBox="0 0 11 10" version="1.1" xmlns="http://www.w3.org/2000/svg" xmlns:xlink="http://www.w3.org/1999/xlink" xmlns:sketch="http://www.bohemiancoding.com/sketch/ns">
    <title>Slice 1</title>
    <description>Created with Sketch (http://www.bohemiancoding.com/sketch)</description>
    <defs></defs>
    <g id="Page-1" stroke="none" stroke-width="1" fill-rule="evenodd" sketch:type="MSPage">
        <path d="M10.7879464,5.21651786 C10.7879464,5.44419757 10.705358,5.64508842 10.5401786,5.81919643 L10.0379464,6.32142857 C9.86830272,6.49107228 9.66517975,6.57589286 9.42857143,6.57589286 C9.18749879,6.57589286 8.98660795,6.49107228 8.82589286,6.32142857 L6.85714286,4.359375 L6.85714286,9.07366071 C6.85714286,9.30580473 6.77343834,9.49441892 6.60602679,9.63950893 C6.43861523,9.78459894 6.23660833,9.85714286 6,9.85714286 L5.14285714,9.85714286 C4.90624882,9.85714286 4.70424191,9.78459894 4.53683036,9.63950893 C4.36941881,9.49441892 4.28571429,9.30580473 4.28571429,9.07366071 L4.28571429,4.359375 L2.31696429,6.32142857 C2.1562492,6.49107228 1.95535835,6.57589286 1.71428571,6.57589286 C1.47321308,6.57589286 1.27232223,6.49107228 1.11160714,6.32142857 L0.609375,5.81919643 C0.439731295,5.64955272 0.354910714,5.44866187 0.354910714,5.21651786 C0.354910714,4.97990953 0.439731295,4.77678656 0.609375,4.60714286 L4.96875,0.247767857 C5.12500078,0.0825884598 5.32589163,0 5.57142857,0 C5.81250121,0 6.01562417,0.0825884598 6.18080357,0.247767857 L10.5401786,4.60714286 C10.705358,4.78125087 10.7879464,4.98437384 10.7879464,5.21651786 L10.7879464,5.21651786 Z" id="arrow-path" sketch:type="MSShapeGroup"></path>
    </g>
</svg>